<svg viewBox="0 0 13 15" fill="currentColor" xmlns="http://www.w3.org/2000/svg">
  <g clip-path="url(#clip0_2330_985)">
    <path
      d="M3.43638 4.05554V2.96179C3.43638 2.78132 3.58103 2.63367 3.75781 2.63367H4.82924C5.00603 2.63367 5.15067 2.78132 5.15067 2.96179V4.05554C5.15067 4.23601 5.00603 4.38367 4.82924 4.38367H3.75781C3.58103 4.38367 3.43638 4.23601 3.43638 4.05554ZM7.18638 4.38367H8.25781C8.4346 4.38367 8.57924 4.23601 8.57924 4.05554V2.96179C8.57924 2.78132 8.4346 2.63367 8.25781 2.63367H7.18638C7.0096 2.63367 6.86496 2.78132 6.86496 2.96179V4.05554C6.86496 4.23601 7.0096 4.38367 7.18638 4.38367ZM3.75781 7.00867H4.82924C5.00603 7.00867 5.15067 6.86101 5.15067 6.68054V5.58679C5.15067 5.40632 5.00603 5.25867 4.82924 5.25867H3.75781C3.58103 5.25867 3.43638 5.40632 3.43638 5.58679V6.68054C3.43638 6.86101 3.58103 7.00867 3.75781 7.00867ZM7.18638 7.00867H8.25781C8.4346 7.00867 8.57924 6.86101 8.57924 6.68054V5.58679C8.57924 5.40632 8.4346 5.25867 8.25781 5.25867H7.18638C7.0096 5.25867 6.86496 5.40632 6.86496 5.58679V6.68054C6.86496 6.86101 7.0096 7.00867 7.18638 7.00867ZM5.15067 9.30554V8.21179C5.15067 8.03132 5.00603 7.88367 4.82924 7.88367H3.75781C3.58103 7.88367 3.43638 8.03132 3.43638 8.21179V9.30554C3.43638 9.48601 3.58103 9.63367 3.75781 9.63367H4.82924C5.00603 9.63367 5.15067 9.48601 5.15067 9.30554ZM7.18638 9.63367H8.25781C8.4346 9.63367 8.57924 9.48601 8.57924 9.30554V8.21179C8.57924 8.03132 8.4346 7.88367 8.25781 7.88367H7.18638C7.0096 7.88367 6.86496 8.03132 6.86496 8.21179V9.30554C6.86496 9.48601 7.0096 9.63367 7.18638 9.63367ZM12.0078 13.0243V14.0087H0.0078125V13.0243C0.0078125 12.8438 0.152455 12.6962 0.329241 12.6962H0.851562V0.664917C0.851562 0.301245 1.13817 0.00866699 1.49442 0.00866699H10.5212C10.8775 0.00866699 11.1641 0.301245 11.1641 0.664917V12.6962H11.6864C11.8632 12.6962 12.0078 12.8438 12.0078 13.0243ZM2.13728 12.6688H5.15067V10.8368C5.15067 10.6563 5.29531 10.5087 5.4721 10.5087H6.54353C6.72031 10.5087 6.86496 10.6563 6.86496 10.8368V12.6688H9.87835V1.34851L2.15067 1.32117L2.13728 12.6688Z" />
  </g>
  <defs>
    <clipPath id="clip0_2330_985">
      <rect width="12" height="14" fill="white" transform="translate(0.0078125 0.00866699)" />
    </clipPath>
  </defs>
</svg>