<svg width="13" height="27" viewBox="0 0 13 27" fill="currentColor" xmlns="http://www.w3.org/2000/svg">
	<path fill-rule="evenodd" clip-rule="evenodd" d="M10.9428 6.42933L7.33825 2.8434V24.1565L10.9428 20.5706C11.2743 20.2331 11.8118 20.2331 12.1443 20.5706C12.4758 20.8997 12.4758 21.4313 12.1443 21.7688L7.13237 26.7637C6.95519 26.9409 6.72062 27.0168 6.48859 27C6.2574 27.0168 6.02285 26.9409 5.84566 26.7637L0.834633 21.7688C0.503039 21.4313 0.503039 20.8997 0.834633 20.5706C1.16623 20.2331 1.70369 20.2331 2.03613 20.5706L5.63978 24.1565V2.8434L2.03613 6.42933C1.70369 6.76683 1.16623 6.76683 0.834633 6.42933C0.503039 6.10027 0.503039 5.56867 0.834633 5.23117L5.84566 0.236238C6.02285 0.0590515 6.2574 -0.0169125 6.48859 -3.62396e-05C6.72062 -0.0169125 6.95519 0.0590515 7.13237 0.236238L12.1443 5.23117C12.4758 5.56867 12.4758 6.10027 12.1443 6.42933C11.8118 6.76683 11.2743 6.76683 10.9428 6.42933Z" fill="currentColor" />
</svg>
