<svg viewBox="0 0 16 16" fill="#597191" xmlns="http://www.w3.org/2000/svg">
  <g clip-path="url(#clip0_18_2227)">
    <path
      d="M2.80039 3.29412C2.80039 4.08824 2.25039 4.70588 1.60039 4.70588C0.925391 4.70588 0.400391 4.08824 0.400391 3.29412C0.400391 2.52941 0.925391 1.88235 1.60039 1.88235C2.25039 1.88235 2.80039 2.52941 2.80039 3.29412ZM0.400391 8C0.400391 7.2353 0.925391 6.58824 1.60039 6.58824C2.25039 6.58824 2.80039 7.2353 2.80039 8C2.80039 8.79412 2.25039 9.41177 1.60039 9.41177C0.925391 9.41177 0.400391 8.79412 0.400391 8ZM0.400391 12.7059C0.400391 11.9412 0.925391 11.2941 1.60039 11.2941C2.25039 11.2941 2.80039 11.9412 2.80039 12.7059C2.80039 13.5 2.25039 14.1176 1.60039 14.1176C0.925391 14.1176 0.400391 13.5 0.400391 12.7059ZM5.25039 1.88235H10.6004C10.9254 1.88235 11.2004 2.20588 11.2004 2.58824V4C11.2004 4.41177 10.9254 4.70588 10.6004 4.70588H5.25039C5.07539 4.70588 4.92539 4.64706 4.77539 4.52941L3.82539 3.67647C3.60039 3.5 3.60039 3.11765 3.82539 2.94118L4.77539 2.08824C4.92539 1.97059 5.07539 1.88235 5.25039 1.88235ZM3.82539 7.64706L4.77539 6.79412C4.92539 6.67647 5.07539 6.58824 5.25039 6.58824H12.2004C12.5254 6.58824 12.8004 6.91177 12.8004 7.29412V8.70588C12.8004 9.11765 12.5254 9.41177 12.2004 9.41177H5.25039C5.07539 9.41177 4.92539 9.35294 4.77539 9.2353L3.82539 8.38235C3.60039 8.20588 3.60039 7.82353 3.82539 7.64706ZM3.82539 12.3529L4.77539 11.5C4.92539 11.3824 5.07539 11.2941 5.25039 11.2941H10.6004C10.9254 11.2941 11.2004 11.6177 11.2004 12V13.4118C11.2004 13.8235 10.9254 14.1176 10.6004 14.1176H5.25039C5.07539 14.1176 4.92539 14.0588 4.77539 13.9412L3.82539 13.0882C3.60039 12.9118 3.60039 12.5294 3.82539 12.3529Z" />
  </g>
  <defs>
    <clipPath id="clip0_18_2227">
      <rect width="12.8" height="16" fill="white" />
    </clipPath>
  </defs>
</svg>