<svg width="24" height="24" viewBox="0 0 24 24" fill="currentColor" xmlns="http://www.w3.org/2000/svg">
  <path fill-rule="evenodd" clip-rule="evenodd"
    d="M20.5714 2.25H3.42857C2.95519 2.25 2.57143 2.58579 2.57143 3V21C2.57143 21.4142 2.95519 21.75 3.42857 21.75H20.5714C21.0447 21.75 21.4286 21.4142 21.4286 21V3C21.4286 2.58579 21.0447 2.25 20.5714 2.25ZM3.42857 0C1.53502 0 0 1.34314 0 3V21C0 22.6569 1.53502 24 3.42857 24H20.5714C22.465 24 24 22.6569 24 21V3C24 1.34314 22.465 0 20.5714 0H3.42857Z" />
  <path
    d="M6.42969 11.625C6.42969 11.0037 7.00533 10.5 7.7154 10.5H16.2868C16.9969 10.5 17.5725 11.0037 17.5725 11.625C17.5725 12.2463 16.9969 12.75 16.2868 12.75H7.7154C7.00533 12.75 6.42969 12.2463 6.42969 11.625Z" />
  <path
    d="M7.7154 15C7.00533 15 6.42969 15.5037 6.42969 16.125C6.42969 16.7463 7.00533 17.25 7.7154 17.25H10.2868C10.9969 17.25 11.5725 16.7463 11.5725 16.125C11.5725 15.5037 10.9969 15 10.2868 15H7.7154Z" />
  <path fill-rule="evenodd" clip-rule="evenodd"
    d="M6.42969 11.625C6.42969 11.0037 7.00533 10.5 7.7154 10.5H16.2868C16.9969 10.5 17.5725 11.0037 17.5725 11.625C17.5725 12.2463 16.9969 12.75 16.2868 12.75H7.7154C7.00533 12.75 6.42969 12.2463 6.42969 11.625ZM7.7154 15C7.00533 15 6.42969 15.5037 6.42969 16.125C6.42969 16.7463 7.00533 17.25 7.7154 17.25H10.2868C10.9969 17.25 11.5725 16.7463 11.5725 16.125C11.5725 15.5037 10.9969 15 10.2868 15H7.7154Z" />
  <path
    d="M6.42969 7.125C6.42969 6.50368 7.00533 6 7.7154 6H16.2868C16.9969 6 17.5725 6.50368 17.5725 7.125C17.5725 7.74632 16.9969 8.25 16.2868 8.25H7.7154C7.00533 8.25 6.42969 7.74632 6.42969 7.125Z" />
</svg>