<svg width="11" height="11" viewBox="0 0 11 11" fill="currentColor" xmlns="http://www.w3.org/2000/svg">
  <g clip-path="url(#clip0_18_4378)">
    <path
      d="M10.5697 1.47176H4.01613C3.83595 0.936628 3.32981 0.550003 2.73469 0.550003C2.13958 0.550003 1.63342 0.936628 1.45324 1.47176H0.430284C0.192653 1.47176 0 1.66441 0 1.90204C0 2.13968 0.192653 2.33233 0.430284 2.33233H1.45327C1.63345 2.86746 2.1396 3.25408 2.73472 3.25408C3.32984 3.25408 3.83598 2.86746 4.01616 2.33233H10.5697C10.8073 2.33233 11 2.13968 11 1.90204C11 1.66441 10.8073 1.47176 10.5697 1.47176ZM2.73469 2.39352C2.46369 2.39352 2.24322 2.17304 2.24322 1.90204C2.24322 1.63105 2.46369 1.41057 2.73469 1.41057C3.0057 1.41057 3.22616 1.63105 3.22616 1.90204C3.22616 2.17304 3.0057 2.39352 2.73469 2.39352Z" />
    <path
      d="M10.5697 5.15879H9.54671C9.36653 4.62366 8.86034 4.23701 8.26526 4.23701C7.67016 4.23701 7.16402 4.62366 6.98385 5.15879H0.430284C0.192653 5.15879 0 5.35142 0 5.58908C0 5.82671 0.192653 6.01934 0.430284 6.01934H6.98385C7.16402 6.55449 7.67019 6.94112 8.26529 6.94112C8.86036 6.94112 9.36656 6.55449 9.54674 6.01934H10.5697C10.8073 6.01934 11 5.82671 11 5.58908C11 5.35142 10.8073 5.15879 10.5697 5.15879ZM8.26529 6.08053C7.99428 6.08053 7.77381 5.86006 7.77381 5.58908C7.77381 5.31807 7.99428 5.0976 8.26529 5.0976C8.53627 5.0976 8.75674 5.31807 8.75674 5.58908C8.75674 5.86006 8.53627 6.08053 8.26529 6.08053Z" />
    <path
      d="M10.5697 8.84588H5.85967C5.67949 8.31073 5.17336 7.9241 4.57823 7.9241C3.98313 7.9241 3.47696 8.31073 3.29678 8.84588H0.430284C0.192653 8.84588 0 9.03851 0 9.27617C0 9.5138 0.192653 9.70643 0.430284 9.70643H3.29678C3.47696 10.2416 3.98313 10.6282 4.57823 10.6282C5.17336 10.6282 5.67949 10.2416 5.85967 9.70643H10.5697C10.8073 9.70643 11 9.5138 11 9.27617C11 9.03851 10.8073 8.84588 10.5697 8.84588ZM4.57823 9.76765C4.30724 9.76765 4.08675 9.54718 4.08675 9.2762C4.08675 9.00518 4.30724 8.78472 4.57823 8.78472C4.84921 8.78472 5.06971 9.00516 5.06971 9.27617C5.06971 9.54715 4.84921 9.76765 4.57823 9.76765Z" />
  </g>
  <defs>
    <clipPath id="clip0_18_4378">
      <rect width="11" height="11" fill="white" />
    </clipPath>
  </defs>
</svg>