<svg width="12" height="10" viewBox="0 0 12 10" fill="currentColor" xmlns="http://www.w3.org/2000/svg">
	<path d="M10.875 0.25H7.5C7.20892 0.25 6.92183 0.317772 6.66147 0.447949C6.40112 0.578126 6.17465 0.767132 6 1C5.82535 0.767132 5.59888 0.578126 5.33853 0.447949C5.07817 0.317772 4.79108 0.25 4.5 0.25H1.125C1.02554 0.25 0.930161 0.289509 0.859835 0.359835C0.789509 0.430161 0.75 0.525544 0.75 0.625V7.375C0.75 7.47446 0.789509 7.56984 0.859835 7.64017C0.930161 7.71049 1.02554 7.75 1.125 7.75H4.5C4.79837 7.75 5.08452 7.86853 5.2955 8.0795C5.50647 8.29048 5.625 8.57663 5.625 8.875C5.625 8.97446 5.66451 9.06984 5.73484 9.14017C5.80516 9.21049 5.90054 9.25 6 9.25C6.09946 9.25 6.19484 9.21049 6.26517 9.14017C6.33549 9.06984 6.375 8.97446 6.375 8.875C6.375 8.57663 6.49353 8.29048 6.7045 8.0795C6.91548 7.86853 7.20163 7.75 7.5 7.75H10.875C10.9745 7.75 11.0698 7.71049 11.1402 7.64017C11.2105 7.56984 11.25 7.47446 11.25 7.375V0.625C11.25 0.525544 11.2105 0.430161 11.1402 0.359835C11.0698 0.289509 10.9745 0.25 10.875 0.25ZM4.5 7H1.5V1H4.5C4.79837 1 5.08452 1.11853 5.2955 1.3295C5.50647 1.54048 5.625 1.82663 5.625 2.125V7.375C5.30075 7.131 4.9058 6.99935 4.5 7ZM10.5 7H7.5C7.0942 6.99935 6.69925 7.131 6.375 7.375V2.125C6.375 1.82663 6.49353 1.54048 6.7045 1.3295C6.91548 1.11853 7.20163 1 7.5 1H10.5V7Z" fill="currentColor" />
</svg>
