<svg xmlns="http://www.w3.org/2000/svg" fill="currentColor" stroke="currentColor" xml:space="preserve" width="128mm" height="128mm" version="1.1" style="shape-rendering:geometricPrecision; text-rendering:geometricPrecision; image-rendering:optimizeQuality; fill-rule:evenodd; clip-rule:evenodd" viewBox="0 0 12800 12800" xmlns:xlink="http://www.w3.org/1999/xlink">
	<g id="Слой_x0020_1">
		<metadata id="CorelCorpID_0Corel-Layer" />
		<g id="_2066355605680">
			<path class="fil1" d="M2272 2625l2050 0 0 2088 -2050 0 0 -2088zm638 650l774 0 0 788 -774 0 0 -788z" />
			<path class="fil1" d="M5059 5395l2050 0 0 2089 -2050 0 0 -2089zm638 650l774 0 0 789 -774 0 0 -789z" />
			<path class="fil1" d="M8480 8107l2050 0 0 2089 -2050 0 0 -2089zm638 651l773 0 0 788 -773 0 0 -788z" />
			<g>
				<path class="fil1" d="M3401 6091l1748 0 0 687 -1798 0c-213,0 -387,174 -387,386l0 1267c0,213 174,387 387,387l3079 0c20,0 40,-1 59,-4l-3 666c-35,3 -71,5 -106,5l-2979 0c-633,0 -1150,-518 -1150,-1150l0 -1093c0,-633 517,-1151 1150,-1151z" />
				<path class="fil1" d="M6708 8287l1578 714c260,118 255,169 7,298l-1508 783c-361,188 -386,178 -386,-186l1 -1416c0,-278 12,-328 308,-193z" />
			</g>
			<path class="fil1" d="M9586 6720l-1747 0 0 -687 1798 0c212,0 386,-174 386,-387l0 -1266c0,-213 -174,-387 -386,-387l-230 0 -5529 -20 3 -648 5531 0c59,0 117,1 174,1 633,0 1151,517 1151,1150l0 1093c0,633 -518,1151 -1151,1151z" />
			<path class="fil1" d="M8875 5521l-1578 715c-260,118 -255,168 -7,297l1508 784c360,187 385,177 385,-186l-1 -1417c0,-278 -11,-327 -307,-193z" />
		</g>
	</g>
</svg>
