<svg width="19" height="19" viewBox="0 0 19 19" fill="currentColor" xmlns="http://www.w3.org/2000/svg">
	<path fill-rule="evenodd" clip-rule="evenodd" d="M17.4193 11.0834C17.4193 11.7782 17.0991 12.3805 16.6411 12.8618C16.187 13.3389 15.5674 13.7326 14.8623 14.0459C13.4499 14.6737 11.5544 15.0417 9.5026 15.0417C7.45083 15.0417 5.55524 14.6737 4.14294 14.0459C3.43779 13.7326 2.81813 13.3389 2.36404 12.8618C1.90607 12.3805 1.58594 11.7782 1.58594 11.0834V7.91671C1.58594 7.22189 1.90607 6.61956 2.36404 6.13833C2.81813 5.66119 3.43779 5.26751 4.14294 4.9541C5.55524 4.32641 7.45083 3.95837 9.5026 3.95837C11.5544 3.95837 13.4499 4.32641 14.8623 4.9541C15.5674 5.26751 16.187 5.66119 16.6411 6.13833C17.0991 6.61956 17.4193 7.22189 17.4193 7.91671V11.0834ZM3.16927 7.91671C3.16927 7.73708 3.24788 7.50634 3.511 7.22986C3.778 6.9493 4.20178 6.66062 4.786 6.40097C5.95244 5.88255 7.61934 5.54171 9.5026 5.54171C11.3859 5.54171 13.0528 5.88255 14.2192 6.40097C14.8034 6.66062 15.2272 6.9493 15.4942 7.22986C15.7573 7.50634 15.8359 7.73708 15.8359 7.91671C15.8359 8.09634 15.7573 8.32711 15.4942 8.60356C15.2272 8.88412 14.8034 9.17277 14.2192 9.43243C13.0528 9.95089 11.3859 10.2917 9.5026 10.2917C7.61934 10.2917 5.95244 9.95089 4.786 9.43243C4.20178 9.17277 3.778 8.88412 3.511 8.60356C3.24788 8.32711 3.16927 8.09634 3.16927 7.91671ZM15.8359 10.3551C15.5387 10.5497 15.2109 10.7244 14.8623 10.8793C13.4499 11.507 11.5544 11.875 9.5026 11.875C7.45083 11.875 5.55524 11.507 4.14294 10.8793C3.79425 10.7244 3.46647 10.5497 3.16927 10.3551V11.0834C3.16927 11.263 3.24788 11.4938 3.511 11.7702C3.778 12.0508 4.20178 12.3394 4.786 12.5991C5.95244 13.1176 7.61934 13.4584 9.5026 13.4584C11.3859 13.4584 13.0528 13.1176 14.2192 12.5991C14.8034 12.3394 15.2272 12.0508 15.4942 11.7702C15.7573 11.4938 15.8359 11.263 15.8359 11.0834V10.3551Z" fill="currentColor" />
</svg>
