<svg width="34" height="34" viewBox="0 0 34 34" fill="none" xmlns="http://www.w3.org/2000/svg">
<rect width="34" height="34" rx="10" fill="url(#paint0_linear)"/>
<g clip-path="url(#clip0)">
<path d="M12.4219 26.4382H16.3265V22.4454H18.6736V26.4382H22.5782V9.56177C22.5782 9.00948 22.1305 8.56177 21.5782 8.56177H13.4219C12.8696 8.56177 12.4219 9.00948 12.4219 9.56177V26.4382ZM18.2125 10.6685H20.5595V13.0155H18.2125V10.6685ZM18.2125 14.4405H20.5595V16.7875H18.2125V14.4405ZM18.2125 18.2124H20.5595V20.5595H18.2125V18.2124ZM14.4406 10.6685H16.7875V13.0155H14.4406V10.6685ZM14.4406 14.4405H16.7875V16.7875H14.4406V14.4405ZM14.4406 18.2124H16.7875V20.5595H14.4406V18.2124Z" fill="white"/>
<path d="M23.4897 10.1631V22.8032H24.9976V26.4382H28.5525V11.1631C28.5525 10.6109 28.1048 10.1631 27.5525 10.1631H23.4897ZM26.7147 21.0862H24.5779V18.9494H26.7146L26.7147 21.0862ZM26.7147 17.652H24.5779V15.5153H26.7146L26.7147 17.652ZM26.7147 14.2179H24.5779V12.0812H26.7146L26.7147 14.2179Z" fill="white"/>
<path d="M6.44727 26.4382H10.0022V22.8032H11.51V10.1631H7.44727C6.89498 10.1631 6.44727 10.6109 6.44727 11.1631V26.4382ZM8.28514 12.0812H10.4219V14.2179H8.28514V12.0812ZM8.28514 15.5153H10.4219V17.652H8.28514V15.5153ZM8.28514 18.9493H10.4219V21.086H8.28514V18.9493Z" fill="white"/>
</g>
<defs>
<linearGradient id="paint0_linear" x1="17" y1="0" x2="17" y2="34" gradientUnits="userSpaceOnUse">
<stop stop-color="#70BAFF"/>
<stop offset="1" stop-color="#0084FF"/>
</linearGradient>
<clipPath id="clip0">
<rect width="22.1053" height="22.1053" fill="white" transform="translate(6.44727 6.44739)"/>
</clipPath>
</defs>
</svg>
