<svg width="20" height="20" viewBox="0 0 20 20" fill="none" xmlns="http://www.w3.org/2000/svg">
<path d="M18.2186 16.01C18.2186 16.1429 18.2118 16.2728 18.1981 16.4028C18.2095 16.3032 18.2209 16.2006 18.2289 16.1039C18.2003 16.3545 18.1468 16.5996 18.0696 16.8331L18.1583 16.5631C18.0804 16.7912 17.9803 17.0061 17.8603 17.2027L18.0002 16.9746C17.8852 17.1586 17.7539 17.3253 17.6089 17.4713L17.7898 17.2937C17.6344 17.4455 17.4648 17.5721 17.2847 17.6705C17.3564 17.6344 17.4269 17.5955 17.4986 17.5579C17.3143 17.6564 17.1209 17.7249 16.923 17.7615C17.0003 17.7471 17.0811 17.7326 17.1584 17.7225C16.9537 17.7557 16.7455 17.7471 16.5385 17.7471H4.74121C4.21226 17.7471 3.68104 17.75 3.15209 17.7471C3.0463 17.7471 2.94164 17.7384 2.83472 17.7225C2.91207 17.737 2.99283 17.7514 3.07018 17.7615C2.87235 17.7253 2.67894 17.6574 2.4946 17.5594C2.56626 17.5955 2.63679 17.6344 2.70845 17.672C2.52835 17.5731 2.35869 17.446 2.20339 17.2937L2.38426 17.4713C2.23922 17.3254 2.10791 17.1587 1.99295 16.9746L2.13286 17.2027C2.01293 17.0061 1.91281 16.7912 1.83483 16.5631L1.92356 16.8331C1.84636 16.5996 1.79285 16.3545 1.7643 16.1039C1.77568 16.2021 1.78705 16.3032 1.79502 16.4028C1.7461 15.9176 1.77454 15.4065 1.77454 14.9185V3.99674C1.77454 3.8639 1.78137 3.73395 1.79502 3.60111C1.78369 3.70055 1.77345 3.80019 1.7643 3.89999C1.79274 3.6502 1.84621 3.40473 1.92356 3.17082L1.83483 3.44083C1.91272 3.21264 2.01284 2.99774 2.13286 2.80118L1.99295 3.02932C2.10794 2.84524 2.23924 2.67857 2.38426 2.53261L2.20339 2.71022C2.35923 2.5586 2.52872 2.43154 2.70845 2.33191L2.4946 2.44598C2.67887 2.34635 2.87225 2.27849 3.07018 2.24239C2.99283 2.25683 2.91207 2.27127 2.83472 2.28137C3.03947 2.24816 3.24764 2.25683 3.45467 2.25683H15.2531C15.782 2.25683 16.3133 2.25394 16.8422 2.25683C16.948 2.25683 17.0527 2.26549 17.1596 2.28137C17.0812 2.26699 17.0027 2.25399 16.9241 2.24239C17.122 2.27849 17.3154 2.34635 17.4997 2.44454C17.428 2.40844 17.3575 2.36945 17.2859 2.33191C17.4667 2.43154 17.6351 2.5586 17.7909 2.71022L17.61 2.53261C17.7545 2.67989 17.8865 2.84305 18.0014 3.02932L17.8614 2.80118C17.982 2.99755 18.0821 3.21269 18.1595 3.44083L18.0707 3.17082C18.1481 3.40473 18.2016 3.6502 18.23 3.89999C18.2187 3.80055 18.2085 3.70091 18.1993 3.60111C18.2482 4.07471 18.2198 4.5743 18.2198 5.05079V14.4911C18.2198 14.9906 18.2129 15.4931 18.2198 15.9927V16.0115C18.2198 16.6006 18.6281 17.1666 19.107 17.1392C19.5905 17.1103 19.9966 16.6439 19.9966 16.0129V4.02417C19.9943 2.88493 19.6144 1.71825 18.9148 0.984745C18.4746 0.525583 17.9661 0.176157 17.3973 0.0678639C17.2002 0.0269218 17.001 0.00424041 16.8013 0H3.1464C2.60421 0.00506125 2.07197 0.185355 1.59989 0.523876C1.12781 0.862396 0.731446 1.34798 0.448186 1.93484C0.12399 2.61203 0 3.38452 0 4.16856V15.6895C0 16.231 0.0204755 16.7753 0.168354 17.2894C0.361733 17.9579 0.666591 18.5831 1.10681 19.0365C1.32636 19.2661 1.55045 19.4697 1.81208 19.6155C1.97247 19.7065 2.13514 19.7931 2.30577 19.8552C2.47981 19.9173 2.6584 19.9461 2.83927 19.9736C3.0372 20.0053 3.23285 19.9996 3.43078 19.9996H16.7433C17.3108 20.0098 17.8713 19.839 18.3733 19.5029C19.3709 18.817 19.9909 17.4352 20 16.0057C20.0023 15.4166 19.5893 14.8506 19.1116 14.878C18.6224 14.9069 18.222 15.3762 18.2186 16.01Z" fill="#FF7A00"/>
<path d="M15.5666 3.66318L14.9489 4.34326L13.4587 5.98498L11.6626 7.96313L10.103 9.68427C9.85276 9.9615 9.59454 10.233 9.34769 10.516L9.33632 10.5275H10.5944L9.98243 9.84888C9.49216 9.30452 9.00416 8.75728 8.51161 8.21293C7.91669 7.54873 7.32176 6.88742 6.72342 6.22467L5.18435 4.51219C4.93551 4.23251 4.68563 3.95431 4.43472 3.67761C4.43131 3.67473 4.42903 3.66895 4.42334 3.66606C4.25347 3.46123 4.02966 3.34389 3.79543 3.33685C3.56014 3.33951 3.33477 3.45746 3.16638 3.66606C3.01167 3.8812 2.89564 4.16277 2.90702 4.46454C2.9184 4.75333 2.9912 5.06521 3.16638 5.26302C3.37113 5.48827 3.57589 5.71641 3.77723 5.94166C4.26864 6.48601 4.75778 7.03325 5.24805 7.57761C5.84411 8.24181 6.43904 8.90312 7.03738 9.56587L8.57645 11.2783L9.32494 12.1129L9.33632 12.1245C9.50695 12.3122 9.72763 12.4681 9.96537 12.4537C10.199 12.441 10.4217 12.3245 10.5944 12.1245C10.8003 11.8992 11.0039 11.6696 11.2121 11.4444L12.7023 9.80267L14.4973 7.82452L16.0568 6.10194C16.3082 5.8247 16.5653 5.55325 16.8121 5.27024L16.8235 5.25869C16.9885 5.0782 17.084 4.72878 17.084 4.46021C17.0816 4.16136 16.9883 3.87525 16.8235 3.66173C16.6552 3.46536 16.4322 3.31808 16.1945 3.33252C15.961 3.34427 15.7385 3.4624 15.5666 3.66318ZM4.42676 16.3349C4.77029 15.9956 5.11496 15.6606 5.45963 15.3227L7.11473 13.6983L7.49239 13.3258C7.65847 13.1612 7.75175 12.7815 7.75175 12.5273C7.74965 12.2287 7.65673 11.9426 7.49239 11.7288C7.3229 11.5325 7.10108 11.3852 6.86334 11.3996C6.78598 11.4141 6.70522 11.4285 6.62787 11.4386C6.4789 11.4899 6.34317 11.59 6.23428 11.7288C5.89075 12.0682 5.54608 12.4031 5.20141 12.7425L3.54631 14.3669L3.16865 14.7379C3.00257 14.9026 2.90929 15.2823 2.90929 15.5364C2.90929 15.8122 3.00598 16.1429 3.16865 16.3349C3.337 16.5313 3.55996 16.6786 3.7977 16.6641C3.87506 16.6497 3.95468 16.6352 4.03317 16.6251C4.18138 16.5716 4.31669 16.4718 4.42676 16.3349ZM16.8235 14.7379L15.7906 13.7272C15.2401 13.1843 14.6872 12.6443 14.1355 12.1014L13.7579 11.7288C13.5622 11.5382 13.387 11.3996 13.1288 11.3996C12.8936 11.4024 12.6682 11.5204 12.4998 11.7288C12.3451 11.944 12.229 12.2255 12.2404 12.5273C12.2495 12.8031 12.3201 13.1482 12.4998 13.3258L13.5338 14.3365C14.0844 14.8794 14.6372 15.4195 15.1889 15.9624L15.5666 16.3349C15.7611 16.5269 15.9374 16.6641 16.1945 16.6641C16.4129 16.6641 16.6722 16.5399 16.8235 16.3349C16.9794 16.1198 17.0942 15.8382 17.084 15.5364C17.0749 15.2606 17.0044 14.9155 16.8235 14.7379Z" fill="#FF7A00"/>
</svg>
