<svg width="20" height="20" viewBox="0 0 20 20" fill="none" xmlns="http://www.w3.org/2000/svg">
<path d="M0.65 20H3.25C3.42239 20 3.58772 19.925 3.70962 19.7916C3.83152 19.6581 3.9 19.4771 3.9 19.2884V6.84639C3.9 6.65766 3.83152 6.47667 3.70962 6.34321C3.58772 6.20976 3.42239 6.13479 3.25 6.13479H0.65C0.477609 6.13479 0.312279 6.20976 0.190381 6.34321C0.0684819 6.47667 0 6.65766 0 6.84639L0 19.2884C0 19.6812 0.29125 20 0.65 20ZM0.65 3.948H3.25C3.42239 3.948 3.58772 3.87303 3.70962 3.73958C3.83152 3.60613 3.9 3.42513 3.9 3.2364V0.711598C3.9 0.52287 3.83152 0.341873 3.70962 0.208422C3.58772 0.0749717 3.42239 0 3.25 0H0.65C0.477609 0 0.312279 0.0749717 0.190381 0.208422C0.0684819 0.341873 0 0.52287 0 0.711598L0 3.23914C0 3.63188 0.29125 3.95074 0.65 3.95074V3.948ZM19.0212 7.57852C18.6562 7.05303 18.1175 6.6206 17.405 6.27985C16.6594 5.93329 15.8562 5.75994 15.0462 5.77078C13.3 5.77078 11.8212 6.50154 10.6075 7.96032C10.365 8.25043 10.19 8.18748 10.19 7.79473V6.84639C10.19 6.65766 10.1215 6.47667 9.99962 6.34321C9.87772 6.20976 9.71239 6.13479 9.54 6.13479H7.2175C7.04511 6.13479 6.87978 6.20976 6.75788 6.34321C6.63598 6.47667 6.5675 6.65766 6.5675 6.84639V19.2884C6.5675 19.6812 6.85875 20 7.2175 20H9.8175C9.98989 20 10.1552 19.925 10.2771 19.7916C10.399 19.6581 10.4675 19.4771 10.4675 19.2884V14.9613C10.4675 13.1591 10.5675 11.9234 10.7662 11.2556C10.9577 10.5981 11.3461 10.0306 11.8687 9.64489C12.4062 9.23982 13.0113 9.03729 13.6863 9.03729C14.2138 9.03729 14.665 9.17961 15.04 9.46288C15.415 9.74615 15.685 10.1444 15.8525 10.6548C16.0175 11.1666 16.1012 12.2929 16.1012 14.0349V19.2898C16.1016 19.4783 16.1702 19.6589 16.2921 19.7921C16.4139 19.9252 16.5791 20 16.7512 20H19.3512C19.5234 19.9996 19.6884 19.9245 19.8101 19.7911C19.9317 19.6577 20 19.4769 20 19.2884V12.2436C20 10.9983 19.9288 10.0404 19.785 9.37256C19.6497 8.7226 19.3898 8.11154 19.0225 7.57988L19.0212 7.57852Z" fill="#2285E1"/>
</svg>
