<svg width="20" height="20" viewBox="0 0 20 20" fill="none" xmlns="http://www.w3.org/2000/svg">
  <path
    d="M17.9775 1.74839e-05H2.02249C1.75659 -0.00109043 1.49309 0.0504661 1.24721 0.151712C1.00134 0.252959 0.777941 0.401891 0.589916 0.589916C0.401891 0.777941 0.252959 1.00134 0.151712 1.24721C0.0504661 1.49309 -0.00109043 1.75659 1.74839e-05 2.02249V17.9775C-0.00109043 18.2434 0.0504661 18.5069 0.151712 18.7528C0.252959 18.9987 0.401891 19.2221 0.589916 19.4101C0.777941 19.5981 1.00134 19.747 1.24721 19.8483C1.49309 19.9495 1.75659 20.0011 2.02249 20H17.9775C18.2434 20.0011 18.5069 19.9495 18.7528 19.8483C18.9987 19.747 19.2221 19.5981 19.4101 19.4101C19.5981 19.2221 19.747 18.9987 19.8483 18.7528C19.9495 18.5069 20.0011 18.2434 20 17.9775V2.02249C20.0011 1.75659 19.9495 1.49309 19.8483 1.24721C19.747 1.00134 19.5981 0.777941 19.4101 0.589916C19.2221 0.401891 18.9987 0.252959 18.7528 0.151712C18.5069 0.0504661 18.2434 -0.00109043 17.9775 1.74839e-05ZM13.3547 15.1525H3.46706V12.9053C3.46706 12.3275 4.23757 12.1027 4.65486 11.9422C6.06744 11.4286 6.51688 11.0113 6.51688 10.0802C6.51688 9.53448 6.09951 9.69501 5.9069 8.69981C5.84267 8.28252 5.45745 8.69981 5.36115 7.73677C5.36115 7.35155 5.55376 7.25524 5.55376 7.25524C5.55376 7.25524 5.45745 6.70949 5.39323 6.26004C5.32908 5.71429 5.71429 4.33388 7.67254 4.33388C9.63086 4.33388 9.98392 5.71429 9.95185 6.25997C9.91977 6.67734 9.79131 7.25524 9.79131 7.25524C9.79131 7.25524 9.98392 7.35155 9.98392 7.73677C9.91977 8.69981 9.53448 8.28252 9.43817 8.69981C9.24556 9.69501 8.82827 9.53448 8.82827 10.0802C8.82827 11.0113 9.27772 11.4286 10.6902 11.9422C12.1028 12.4558 13.2905 12.9374 13.2905 13.4831V15.1524L13.3547 15.1525ZM14.2215 15.1525V13.3227C14.2215 12.4238 13.9005 12.2312 11.6212 11.236C12.0064 11.0434 12.2311 10.6261 12.199 10.2087C12.199 9.79131 11.878 9.91977 11.7496 9.18141C11.6854 8.86034 11.4286 9.18141 11.3643 8.47513C11.3643 8.18621 11.5249 8.12198 11.5249 8.12198C11.5249 8.12198 11.4606 7.70469 11.4286 7.38362C11.3965 6.96633 11.6533 5.93898 13.1301 5.93898C14.6068 5.93898 14.8635 6.9984 14.8315 7.38362C14.7994 7.70469 14.7352 8.12198 14.7352 8.12198C14.7352 8.12198 14.8957 8.18621 14.8957 8.47513C14.8635 9.18141 14.5746 8.89242 14.5105 9.18141C14.2857 9.91977 13.9647 9.79131 13.9647 10.2087C13.9647 10.8828 14.2857 11.2039 15.3451 11.5891C16.4046 11.9743 16.9502 12.2312 17.2071 12.5843C17.3676 12.8411 17.3997 15.1525 17.3997 15.1525H14.2215Z"
    fill="#268EEF" />
</svg>