<svg width="20" height="20" viewBox="0 0 20 20" fill="none" xmlns="http://www.w3.org/2000/svg">
<path fill-rule="evenodd" clip-rule="evenodd" d="M5.26281 9.16665H14.7359C15.015 9.16665 15.2828 9.07885 15.4801 8.92257C15.6775 8.76629 15.7884 8.55433 15.7884 8.33331V4.16665C15.7884 3.94563 15.6775 3.73367 15.4801 3.57739C15.2828 3.42111 15.015 3.33331 14.7359 3.33331H5.26281C4.98365 3.33331 4.71593 3.42111 4.51854 3.57739C4.32114 3.73367 4.21025 3.94563 4.21025 4.16665V8.33331C4.21025 8.55433 4.32114 8.76629 4.51854 8.92257C4.71593 9.07885 4.98365 9.16665 5.26281 9.16665ZM6.31537 4.99998H13.6833V7.49998H6.31537V4.99998ZM3.15769 18.3333C2.87853 18.3333 2.61081 18.2455 2.41341 18.0892C2.21602 17.933 2.10512 17.721 2.10512 17.5C2.10512 17.279 2.21602 17.067 2.41341 16.9107C2.61081 16.7544 2.87853 16.6666 3.15769 16.6666H17.0199C16.7818 17.2062 16.7818 17.7938 17.0199 18.3333H3.15769ZM18.9461 20C19.1544 20.0001 19.3581 19.9513 19.5313 19.8597C19.7046 19.7682 19.8396 19.638 19.9193 19.4856C19.9991 19.3333 20.0199 19.1656 19.9792 19.0039C19.9386 18.8422 19.8382 18.6936 19.6908 18.5771C18.6988 17.7916 18.6988 17.2083 19.6908 16.4229C19.8382 16.3063 19.9386 16.1578 19.9792 15.9961C20.0199 15.8343 19.9991 15.6667 19.9193 15.5143C19.8396 15.362 19.7046 15.2318 19.5313 15.1402C19.3581 15.0487 19.1544 14.9999 18.9461 15H3.15769C2.32022 15 1.51705 15.2634 0.924865 15.7322C0.332684 16.2011 0 16.8369 0 17.5C0 18.163 0.332684 18.7989 0.924865 19.2677C1.51705 19.7366 2.32022 20 3.15769 20H18.9461Z" fill="#47BBD4"/>
<path fill-rule="evenodd" clip-rule="evenodd" d="M2.64983 2.58887e-07C2.3018 -0.000136656 1.95715 0.0540341 1.63558 0.159416C1.31401 0.264797 1.02182 0.419324 0.775731 0.61416C0.529637 0.808997 0.334459 1.04032 0.201354 1.29492C0.0682492 1.54951 -0.000172607 1.82238 3.26994e-07 2.09792V17.5H2.10512C2.10512 17.279 2.21602 17.067 2.41341 16.9107C2.61081 16.7545 2.87853 16.6667 3.15769 16.6667H18.9461C19.2253 16.6667 19.493 16.5789 19.6904 16.4226C19.8878 16.2663 19.9987 16.0543 19.9987 15.8333V0.833334C19.9987 0.61232 19.8878 0.400358 19.6904 0.244078C19.493 0.0877976 19.2253 2.58887e-07 18.9461 2.58887e-07H2.64983ZM17.8936 15H3.15769C2.78929 15 2.43405 15.05 2.10512 15.1417V2.09792C2.10512 1.85938 2.34853 1.66667 2.64983 1.66667H17.8936V15Z" fill="#47BBD4"/>
</svg>
