<svg width="20" height="20" viewBox="0 0 20 20" fill="none" xmlns="http://www.w3.org/2000/svg">
<path d="M11.8341 10.24C11.8341 9.97472 11.7283 9.72031 11.5398 9.53273C11.3514 9.34515 11.0958 9.23977 10.8294 9.23977C10.5629 9.23977 10.3073 9.34515 10.1189 9.53273C9.93046 9.72031 9.8246 9.97472 9.8246 10.24C9.8034 11.2497 9.3835 12.2104 8.65586 12.9141C7.92821 13.6178 6.95139 14.0079 5.93695 13.9998C4.91588 14.0181 3.92917 13.6326 3.19317 12.9278C2.45717 12.223 2.03194 11.2564 2.01073 10.24C2.01983 9.73568 2.12864 9.23809 2.33095 8.77564C2.53327 8.31319 2.82511 7.89495 3.18982 7.5448C3.55454 7.19466 3.98497 6.91947 4.45654 6.73496C4.9281 6.55045 5.43156 6.46023 5.93816 6.46945C6.20448 6.46945 6.45989 6.36414 6.64821 6.17667C6.83652 5.9892 6.94232 5.73494 6.94232 5.46981C6.94232 5.20469 6.83652 4.95043 6.64821 4.76296C6.45989 4.57549 6.20448 4.47017 5.93816 4.47017C4.38284 4.45383 2.88445 5.05197 1.77136 6.1335C0.658278 7.21504 0.0212902 8.69175 0 10.24C0.021285 11.7872 0.65842 13.2627 1.77153 14.3427C2.88463 15.4227 4.38274 16.0188 5.93695 16.0002C7.4844 16.0086 8.97248 15.4079 10.077 14.329C11.1816 13.2501 11.8132 11.7804 11.8341 10.24Z" fill="#DC3B61"/>
<path d="M4.93195 8.91033C4.74284 8.72334 4.48686 8.6188 4.22032 8.6197C3.95379 8.6206 3.69853 8.72687 3.5107 8.91513C3.32287 9.10339 3.21785 9.35821 3.21876 9.62355C3.21966 9.88889 3.32641 10.143 3.51552 10.33L5.65523 12.4601C5.74824 12.5544 5.85907 12.6294 5.98134 12.6809C6.10361 12.7324 6.23491 12.7593 6.36767 12.7601H6.44843C6.59497 12.7515 6.7375 12.7091 6.86472 12.6362C6.99194 12.5633 7.10035 12.4619 7.18136 12.3401L12.4252 4.99937C12.5748 4.81136 12.6518 4.57614 12.642 4.33645C12.6322 4.09676 12.5364 3.86852 12.372 3.69318C12.2075 3.51785 11.9853 3.40706 11.7458 3.38095C11.5063 3.35485 11.2653 3.41515 11.0666 3.55091C10.9541 3.6304 10.8593 3.73212 10.7881 3.84973L6.26761 10.2196L4.93195 8.91033Z" fill="#DC3B61"/>
<path d="M18.9959 0H2.92213C2.65581 0 2.4004 0.105319 2.21208 0.292788C2.02376 0.480257 1.91797 0.734519 1.91797 0.99964V3.16933C1.91797 3.43461 2.02383 3.68902 2.21226 3.8766C2.40069 4.06418 2.65625 4.16957 2.92273 4.16957C3.18921 4.16957 3.44477 4.06418 3.6332 3.8766C3.82163 3.68902 3.92749 3.43461 3.92749 3.16933V1.99928H17.9905V18.0007H3.92749V16.9999C3.92749 16.7346 3.82163 16.4802 3.6332 16.2926C3.44477 16.105 3.18921 15.9996 2.92273 15.9996C2.65625 15.9996 2.40069 16.105 2.21226 16.2926C2.02383 16.4802 1.91797 16.7346 1.91797 16.9999V19.0004C1.91797 19.2655 2.02376 19.5197 2.21208 19.7072C2.4004 19.8947 2.65581 20 2.92213 20H18.9959C19.2622 20 19.5176 19.8947 19.7059 19.7072C19.8943 19.5197 20.0001 19.2655 20.0001 19.0004V0.99964C20.0001 0.734519 19.8943 0.480257 19.7059 0.292788C19.5176 0.105319 19.2622 0 18.9959 0Z" fill="#DC3B61"/>
</svg>
