<svg width="10" height="11" viewBox="0 0 13 11" fill="#597191" xmlns="http://www.w3.org/2000/svg">
  <g clip-path="url(#clip0_18_2238)">
    <path
      d="M1.21875 8.57352C1.21875 8.85661 1.47266 9.05882 1.82812 9.05882H12.3906C12.7207 9.05882 13 9.28128 13 9.54411C13 9.8272 12.7207 10.0294 12.3906 10.0294H1.82812C0.8125 10.0294 0 9.38235 0 8.57352V1.45588C0 1.19301 0.253906 0.970581 0.609375 0.970581C0.939453 0.970581 1.21875 1.19301 1.21875 1.45588V8.57352ZM8.53125 6.49077C8.30278 6.69304 7.92188 6.69304 7.69336 6.49077L5.66211 4.89338L3.65625 6.49077C3.42773 6.69304 3.04688 6.69304 2.81836 6.49077C2.56445 6.30882 2.56445 6.00551 2.81836 5.8033L5.25586 3.86213C5.35742 3.78124 5.50977 3.72058 5.66211 3.72058C5.83984 3.72058 5.99219 3.78124 6.09375 3.86213L8.125 5.47977L11.1465 3.0533C11.375 2.87132 11.7559 2.87132 11.9844 3.0533C12.2383 3.25551 12.2383 3.55882 11.9844 3.7408L8.53125 6.49077Z" />
  </g>
  <defs>
    <clipPath id="clip0_18_2238">
      <rect width="11" height="11" fill="white" />
    </clipPath>
  </defs>
</svg>