<svg width="15" height="15" viewBox="0 0 15 15" fill="currentColor" xmlns="http://www.w3.org/2000/svg">
  <g clip-path="url(#clip0_2330_996)">
    <path
      d="M12.3672 11.8212C12.3672 12.1219 12.1211 12.368 11.8203 12.368C11.5195 12.368 11.2734 12.1219 11.2734 11.8212C11.2734 11.5204 11.5195 11.2743 11.8203 11.2743C12.1211 11.2743 12.3672 11.5204 12.3672 11.8212ZM10.0703 11.2743C9.76953 11.2743 9.52344 11.5204 9.52344 11.8212C9.52344 12.1219 9.76953 12.368 10.0703 12.368C10.3711 12.368 10.6172 12.1219 10.6172 11.8212C10.6172 11.5204 10.3711 11.2743 10.0703 11.2743ZM14.0078 9.96179V12.8055C14.0078 13.47 13.4691 14.0087 12.8047 14.0087H1.21094C0.546484 14.0087 0.0078125 13.47 0.0078125 12.8055V9.96179C0.0078125 9.29734 0.546484 8.75867 1.21094 8.75867H3.92891L2.38672 7.21648C1.69766 6.52742 2.18711 5.3489 3.16055 5.3489H4.60156V1.10242C4.60156 0.49812 5.09102 0.00866699 5.69531 0.00866699H8.32031C8.92461 0.00866699 9.41406 0.49812 9.41406 1.10242V5.3489H10.8551C11.8285 5.3489 12.3152 6.52742 11.6289 7.21648L10.0867 8.75867H12.8047C13.4691 8.75867 14.0078 9.29734 14.0078 9.96179ZM6.85195 10.4458C6.93672 10.5305 7.07617 10.5305 7.16094 10.4458L11.0082 6.59851C11.1449 6.46179 11.0492 6.2239 10.8523 6.2239H8.53906V1.10242C8.53906 0.982104 8.44063 0.883667 8.32031 0.883667H5.69531C5.575 0.883667 5.47656 0.982104 5.47656 1.10242V6.2239H3.16055C2.96641 6.2239 2.86797 6.45906 3.00469 6.59851L6.85195 10.4458ZM13.1328 9.96179C13.1328 9.78132 12.9852 9.63367 12.8047 9.63367H9.21172L7.78164 11.0637C7.35508 11.4903 6.66055 11.4903 6.23398 11.0637L4.80391 9.63367H1.21094C1.03047 9.63367 0.882812 9.78132 0.882812 9.96179V12.8055C0.882812 12.986 1.03047 13.1337 1.21094 13.1337H12.8047C12.9852 13.1337 13.1328 12.986 13.1328 12.8055V9.96179Z" />
  </g>
  <defs>
    <clipPath id="clip0_2330_996">
      <rect width="14" height="14" fill="white" transform="translate(0.0078125 0.00866699)" />
    </clipPath>
  </defs>
</svg>