<svg viewBox="0 0 14 14" fill="currentColor" xmlns="http://www.w3.org/2000/svg">
  <g clip-path="url(#clip0_50_7510)">
    <path
      d="M7 9.625C8.01172 9.625 8.72266 9.1602 9.13281 8.72266C9.37895 8.44922 9.78906 8.42188 10.0625 8.66797C10.3359 8.91406 10.3359 9.32417 10.0898 9.5977C9.48833 10.254 8.44922 10.9375 7 10.9375C5.52344 10.9375 4.48438 10.254 3.88281 9.5977C3.63672 9.32417 3.63672 8.91406 3.91016 8.66797C4.18359 8.42188 4.59375 8.44922 4.83984 8.72266C5.25 9.1602 5.96094 9.625 7 9.625ZM5.6875 5.6875C5.6875 6.17969 5.30469 6.5625 4.8125 6.5625C4.32031 6.5625 3.9375 6.17969 3.9375 5.6875C3.9375 5.22266 4.32031 4.8125 4.8125 4.8125C5.30469 4.8125 5.6875 5.22266 5.6875 5.6875ZM8.3125 5.6875C8.3125 5.22266 8.69531 4.8125 9.1875 4.8125C9.67969 4.8125 10.0625 5.22266 10.0625 5.6875C10.0625 6.17969 9.67969 6.5625 9.1875 6.5625C8.69531 6.5625 8.3125 6.17969 8.3125 5.6875ZM14 7C14 10.8828 10.8554 14 7 14C3.11719 14 0 10.8828 0 7C0 3.14453 3.11719 0 7 0C10.8554 0 14 3.14453 14 7ZM7 1.3125C3.85547 1.3125 1.3125 3.88281 1.3125 7C1.3125 10.1446 3.85547 12.6875 7 12.6875C10.1172 12.6875 12.6875 10.1446 12.6875 7C12.6875 3.88281 10.1172 1.3125 7 1.3125Z" />
  </g>
  <defs>
    <clipPath id="clip0_50_7510">
      <rect width="14" height="14" fill="white" />
    </clipPath>
  </defs>
</svg>