<svg viewBox="0 0 18 15" fill="currentColor" xmlns="http://www.w3.org/2000/svg">
  <path fill-rule="evenodd" clip-rule="evenodd"
    d="M0.568205 6.30155H4.43539C4.74777 6.30155 5.0036 6.5573 5.0036 6.87097V14.4317C5.0036 14.744 4.74777 15.0012 4.43539 15.0012H0.568205C0.255834 15.0012 0 14.7454 0 14.4317V6.87097C0 6.5573 0.255834 6.30155 0.568205 6.30155ZM8.91319 0.629923C9.21284 -0.88901 11.7005 0.509821 11.8645 2.95848C11.9139 3.70735 11.8362 4.57915 11.6524 5.55268H15.2073C16.6857 5.61061 17.9762 6.66892 17.0645 8.40686C17.2723 9.16421 17.3034 10.053 16.7394 10.4034C16.8101 11.5987 16.4794 12.3391 15.8603 12.9241C15.8193 13.5218 15.6921 14.0531 15.4037 14.4614C14.926 15.1354 14.5387 14.9743 13.7868 14.9743H7.78385C6.8326 14.9743 6.31386 14.7129 5.69195 13.933V7.24965C7.48137 6.76641 8.43262 4.31916 8.91319 2.71263V0.629923Z" />
</svg>