<svg viewBox="0 0 16 16" fill="#597191" xmlns="http://www.w3.org/2000/svg">
  <path
    d="M13.325 0.617642C13.15 0.470584 12.9 0.441172 12.7 0.588231L1.10004 8.35294C0.900045 8.47058 0.775045 8.73529 0.800045 9C0.800045 9.2647 0.950045 9.50004 1.15004 9.61769L5.00004 11.5V14.8235C5.00004 15.0882 5.10004 15.3235 5.30004 15.4706C5.40004 15.5 5.50004 15.5294 5.57504 15.5294C5.67504 15.5294 5.80004 15.5 5.90004 15.4411L8.67508 13.3235L11.125 14.5589C11.2 14.5882 11.2751 14.6176 11.3751 14.6176C11.4751 14.6176 11.5751 14.5589 11.65 14.4999C11.825 14.4118 11.925 14.2059 11.95 14L13.55 1.29411C13.625 1.02941 13.525 0.764701 13.325 0.617642ZM10.025 4L5.35004 10.147L2.75004 8.85294L10.025 4ZM6.17504 13.5294V12.0883L7.32505 12.6765L6.17504 13.5294ZM10.9 12.8823L6.50004 10.7059L12.1 3.38235L10.9 12.8823Z" />
</svg>