<svg viewBox="0 0 22 22" fill="currentColor" stroke="currentColor" xmlns="http://www.w3.org/2000/svg">
<path d="M16.5161 15.1952H14.3359V19.952H16.5161V15.1952ZM10.8344 6.54055V21.009C7.99355 21.009 5.21877 21.009 2.37793 21.009V8.32433L10.8344 6.54055ZM9.71126 7.86187L3.50105 9.18319V19.952H4.42598V14.1381C5.87943 14.1381 7.33288 14.1381 8.78634 14.1381V19.952H9.71126V7.86187ZM18.5641 4.36037L12.2878 2.44445V19.952H13.2788V14.1381H17.5731V19.952H18.5641V4.36037ZM19.6212 3.50151V21.009C16.8464 21.009 14.0056 21.009 11.2308 21.009V0.990997L19.6212 3.50151ZM7.66321 15.1952H5.5491V19.952H7.66321V15.1952Z" fill="#506F99"/>
<path d="M6.38434 9.97598H4.95508V10.5997H6.38434V9.97598Z" fill="#506F99"/>
<path d="M6.38434 12.024H4.95508V12.6478H6.38434V12.024Z" fill="#506F99"/>
<path d="M8.23395 9.97598H6.80469V10.5997H8.23395V9.97598Z" fill="#506F99"/>
<path d="M8.23395 12.024H6.80469V12.6478H8.23395V12.024Z" fill="#506F99"/>
<path d="M17.0201 9.97598H15.5908V10.5997H17.0201V9.97598Z" fill="#506F99"/>
<path d="M17.0201 12.024H15.5908V12.6478H17.0201V12.024Z" fill="#506F99"/>
<path d="M15.2369 9.97598H13.8076V10.5997H15.2369V9.97598Z" fill="#506F99"/>
<path d="M15.2369 12.024H13.8076V12.6478H15.2369V12.024Z" fill="#506F99"/>
<path d="M17.0201 7.92792H15.5908V8.55164H17.0201V7.92792Z" fill="#506F99"/>
<path d="M17.0201 5.94595H15.5908V6.56968H17.0201V5.94595Z" fill="#506F99"/>
<path d="M15.2369 7.92792H13.8076V8.55164H15.2369V7.92792Z" fill="#506F99"/>
<path d="M15.2369 5.94595H13.8076V6.56968H15.2369V5.94595Z" fill="#506F99"/>
</svg>
