<svg viewBox="0 0 13 16" fill="#597191" xmlns="http://www.w3.org/2000/svg">
  <g clip-path="url(#clip0_18_2244)">
    <path
      d="M6.38091 8.96359C5.29516 8.96359 4.39993 7.93278 4.41897 6.63306C4.41897 5.35575 5.29516 4.30253 6.38091 4.30253C7.46659 4.30253 8.36186 5.35575 8.36186 6.63306C8.36186 7.93278 7.48561 8.96359 6.38091 8.96359ZM6.38091 5.37816C5.80945 5.37816 5.31421 5.96079 5.31421 6.63306C5.31421 7.32774 5.80945 7.88796 6.38091 7.88796C6.97135 7.88796 7.44758 7.32774 7.44758 6.63306C7.44758 5.96079 6.97135 5.37816 6.38091 5.37816ZM10.0571 5.37816C9.19996 5.37816 8.53326 4.59385 8.53326 3.58544C8.53326 2.59945 9.19996 1.79272 10.0571 1.79272C10.8952 1.79272 11.5809 2.59945 11.5809 3.58544C11.5809 4.59385 10.8952 5.37816 10.0571 5.37816ZM7.33323 9.68068C8.83802 9.68068 10.0571 11.0252 10.0571 12.6835C10.0571 13.0196 9.80948 13.2661 9.50472 13.2661H3.27612C2.97135 13.2661 2.74278 13.0196 2.74278 12.6835C2.74278 11.0252 3.94278 9.68068 5.44755 9.68068H7.33323ZM3.69516 12.1905H9.08561C8.87612 11.3838 8.17132 10.7563 7.33323 10.7563H5.4285C4.5904 10.7563 3.88564 11.3838 3.69516 12.1905ZM10.8 6.09525C11.7333 6.09525 12.4952 7.03642 12.4952 8.20169C12.4952 8.42578 12.3428 8.60505 12.1523 8.60505H8.34278C8.74281 8.08964 8.97139 7.39497 8.97139 6.63306C8.97139 6.52102 8.95231 6.40897 8.95231 6.29693C9.1618 6.18488 9.39037 6.09525 9.63802 6.09525H10.8ZM3.7904 6.63306C3.7904 7.39497 4.03802 8.08964 4.43802 8.60505H0.628497C0.438021 8.60505 0.304688 8.42578 0.304688 8.20169C0.304688 7.03642 1.04754 6.09525 1.98088 6.09525H3.14278C3.3904 6.09525 3.61897 6.16247 3.8285 6.29693C3.80945 6.40897 3.7904 6.52102 3.7904 6.63306ZM2.74278 5.37816C1.88564 5.37816 1.21897 4.59385 1.21897 3.58544C1.21897 2.59945 1.88564 1.79272 2.74278 1.79272C3.58088 1.79272 4.26659 2.59945 4.26659 3.58544C4.26659 4.59385 3.58088 5.37816 2.74278 5.37816Z" />
  </g>
  <defs>
    <clipPath id="clip0_18_2244">
      <rect width="12.8" height="15.0588" fill="white" />
    </clipPath>
  </defs>
</svg>