<svg viewBox="0 0 56 56" fill="none" xmlns="http://www.w3.org/2000/svg">
  <path
    d="M50.9342 0H5.06565C2.268 0 0 2.268 0 5.06565V50.9342C0 53.732 2.268 56 5.06565 56H50.9342C53.732 56 56 53.732 56 50.9342V5.06565C56 2.268 53.732 0 50.9342 0ZM17.3288 48.354C17.3288 49.1682 16.6688 49.8284 15.8546 49.8284H9.57936C8.76517 49.8284 8.10519 49.1682 8.10519 48.354V22.0486C8.10519 21.2344 8.76517 20.5744 9.57936 20.5744H15.8546C16.6688 20.5744 17.3288 21.2344 17.3288 22.0486V48.354ZM12.717 18.0947C9.42458 18.0947 6.75548 15.4256 6.75548 12.1332C6.75548 8.84081 9.42458 6.17174 12.717 6.17174C16.0094 6.17174 18.6785 8.84081 18.6785 12.1332C18.6785 15.4256 16.0095 18.0947 12.717 18.0947ZM50.1229 48.4729C50.1229 49.2213 49.5161 49.8284 48.7675 49.8284H42.0338C41.2852 49.8284 40.6782 49.2213 40.6782 48.4729V36.1341C40.6782 34.2935 41.2182 28.0681 35.868 28.0681C31.718 28.0681 30.8762 32.3292 30.7073 34.2413V48.4729C30.7073 49.2213 30.1004 49.8284 29.3518 49.8284H22.839C22.0905 49.8284 21.4836 49.2213 21.4836 48.4729V21.9299C21.4836 21.1814 22.0905 20.5744 22.839 20.5744H29.3518C30.1002 20.5744 30.7073 21.1814 30.7073 21.9299V24.2249C32.2459 21.9155 34.533 20.133 39.4021 20.133C50.1847 20.133 50.1229 30.2066 50.1229 35.7414V48.4729Z"
    fill="#0966C2" />
</svg>