<svg xmlns="http://www.w3.org/2000/svg" xml:space="preserve" fill="currentColor" version="1.1" style="shape-rendering:geometricPrecision; text-rendering:geometricPrecision; image-rendering:optimizeQuality; fill-rule:evenodd; clip-rule:evenodd"
viewBox="0 0 12800 12800"
 xmlns:xlink="http://www.w3.org/1999/xlink">
 <g id="Слой_x0020_1">
  <metadata id="CorelCorpID_0Corel-Layer"/>
  <path class="fil0" d="M2267 1940l8278 0c196,0 357,160 357,356l0 8191c0,196 -161,357 -357,357l-8278 0c-196,0 -356,-161 -356,-357l0 -8191c0,-196 160,-356 356,-356zm2762 2385c-225,0 -407,183 -407,408 0,225 182,407 407,407 225,0 408,-182 408,-407 0,-225 -183,-408 -408,-408zm-357 3625l-1 -2622 723 0 2 2623 -724 -1zm3365 0l-777 4c4,-567 -12,-1025 -10,-1594 0,-54 5,-140 -14,-192 -41,-108 -162,-203 -361,-201 -194,3 -295,98 -328,204 -16,53 -13,166 -13,221 -1,488 1,1108 -1,1559l-862 -1 2 -2622 861 2 0 180c187,-232 710,-269 1045,-125 126,55 221,124 285,208 65,85 110,181 135,288 26,108 38,261 38,461l0 1608z"/>
 </g>
</svg>
