<svg xmlns="http://www.w3.org/2000/svg" xml:space="preserve" fill="currentColor" version="1.1" style="shape-rendering:geometricPrecision; text-rendering:geometricPrecision; image-rendering:optimizeQuality; fill-rule:evenodd; clip-rule:evenodd"
viewBox="0 0 12800 12800"
 xmlns:xlink="http://www.w3.org/1999/xlink">
 <g id="Слой_x0020_1">
  <metadata id="CorelCorpID_0Corel-Layer"/>
  <path class="fil1" d="M6366 1903c-2500,0 -4527,2010 -4527,4489 0,2479 2027,4489 4527,4489 2500,0 4527,-2010 4527,-4489 0,-2479 -2027,-4489 -4527,-4489zm-1380 2355c-232,0 -421,189 -421,421 0,232 189,421 421,421 232,0 421,-189 421,-421 0,-232 -189,-421 -421,-421zm-369 3743l-1 -2708 746 0 2 2708 -747 0zm3475 0l-803 4c4,-585 -12,-1059 -10,-1646 0,-55 5,-145 -15,-198 -42,-112 -167,-210 -372,-208 -201,3 -305,101 -339,210 -17,55 -13,172 -13,229 -1,504 1,1144 -1,1610l-891 -1 2 -2708 889 2 0 187c194,-240 734,-278 1079,-129 131,56 229,128 295,214 67,88 113,187 139,298 27,111 40,269 40,475l0 1661z"/>
 </g>
</svg>
