<svg viewBox="0 0 30 30" fill="currentColor" xmlns="http://www.w3.org/2000/svg">
  <path fill-rule="evenodd" clip-rule="evenodd"
    d="M29.5996 29.5H23.5996V19.4C23.5996 16.6 22.5996 15 20.3996 15C17.9996 15 16.6996 16.7 16.6996 19.4V29.5H10.9996V10.2H16.6996V12.8C16.6996 12.8 18.3996 9.60001 22.4996 9.60001C26.5996 9.60001 29.4996 12.1 29.4996 17.3V29.5H29.5996ZM4.19961 7.70001C2.19961 7.70001 0.599609 6.00001 0.599609 4.00001C0.599609 2.00001 2.19961 0.600006 4.19961 0.600006C6.19961 0.600006 7.69961 2.00001 7.69961 4.00001C7.69961 6.00001 5.99961 7.70001 4.19961 7.70001ZM1.19961 29.5H7.19961V10.2H1.19961V29.5Z" />
</svg>