<svg viewBox="0 0 34 34" fill="currentColor" xmlns="http://www.w3.org/2000/svg">
  <rect width="15.8278" height="4.99826" rx="2.49913" transform="matrix(4.37113e-08 -1 -1 -4.37114e-08 15.8809 15.8279)"
    fill="currentColor" />
  <rect width="9.78827" height="4.99826" rx="2.49913" transform="matrix(4.37113e-08 -1 -1 -4.37114e-08 8.80078 15.8279)"
    fill="currentColor" />
  <rect width="15.8278" height="4.99827" rx="2.49913" transform="matrix(-1 0 0 1 15.8809 17.9104)" fill="currentColor" />
  <rect width="9.78826" height="4.99827" rx="2.49913" transform="matrix(-1 0 0 1 15.8809 24.9913)" fill="currentColor" />
  <rect width="15.8278" height="4.99827" rx="2.49913" transform="matrix(1 -8.74229e-08 -8.74227e-08 -1 18.1719 15.4113)"
    fill="currentColor" />
  <rect width="9.78826" height="4.99827" rx="2.49913" transform="matrix(1 -8.74229e-08 -8.74227e-08 -1 18.1719 8.33044)"
    fill="currentColor" />
  <rect width="15.8278" height="4.99826" rx="2.49913" transform="matrix(4.37113e-08 1 1 -4.37114e-08 18.3809 17.7022)"
    fill="currentColor" />
  <rect width="9.78827" height="4.99826" rx="2.49913" transform="matrix(4.37113e-08 1 1 -4.37114e-08 25.4609 17.7022)"
    fill="currentColor" />
</svg>