<svg width="35" height="36" viewBox="0 0 35 36" fill="none" xmlns="http://www.w3.org/2000/svg">
  <g style="mix-blend-mode:multiply">
    <path
      d="M15.8874 10.8947V14.2712H7.22686C6.76737 14.2712 6.3267 14.0933 6.00179 13.7767C5.67689 13.4601 5.49436 13.0307 5.49436 12.5829C5.49436 12.1352 5.67689 11.7058 6.00179 11.3892C6.3267 11.0726 6.76737 10.8947 7.22686 10.8947H15.8874ZM13.7213 22.0775V25.452H7.22686C6.76763 25.452 6.32721 25.2742 6.00248 24.9578C5.67776 24.6414 5.49533 24.2122 5.49533 23.7647C5.49533 23.3172 5.67776 22.8881 6.00248 22.5717C6.32721 22.2552 6.76763 22.0775 7.22686 22.0775H13.7213ZM13.7213 16.1697V19.9667H2.6788C2.16207 19.9667 1.66651 19.7667 1.30112 19.4107C0.935739 19.0546 0.730469 18.5717 0.730469 18.0682C0.730469 17.5647 0.935739 17.0818 1.30112 16.7258C1.66651 16.3697 2.16207 16.1697 2.6788 16.1697H13.7213Z"
      fill="#D5FA8C" />
  </g>
  <path
    d="M10.207 9.66695C10.207 9.56084 10.2965 9.47369 10.4054 9.47369H33.8612C33.9701 9.47369 34.0595 9.56084 34.0595 9.66695V26.1474C34.0595 26.2479 34.0186 26.3443 33.9456 26.4153C33.8727 26.4864 33.7738 26.5263 33.6706 26.5263H10.5959C10.4928 26.5263 10.3939 26.4864 10.3209 26.4153C10.248 26.3443 10.207 26.2479 10.207 26.1474V9.66695Z"
    fill="#A48CFA" />
  <mask id="mask0_2400_224" style="mask-type:alpha" maskUnits="userSpaceOnUse" x="10" y="9" width="25" height="18">
    <path
      d="M10.207 9.66695C10.207 9.56084 10.2965 9.47369 10.4054 9.47369H33.8612C33.9701 9.47369 34.0595 9.56084 34.0595 9.66695V26.1474C34.0595 26.2479 34.0186 26.3443 33.9456 26.4153C33.8727 26.4864 33.7738 26.5263 33.6706 26.5263H10.5959C10.4928 26.5263 10.3939 26.4864 10.3209 26.4153C10.248 26.3443 10.207 26.2479 10.207 26.1474V9.66695Z"
      fill="#6CA4F9" />
  </mask>
  <g mask="url(#mask0_2400_224)">
    <path
      d="M21.6951 20.9804C21.893 21.1709 22.1604 21.2771 22.4385 21.2757C22.7167 21.2743 22.9829 21.1653 23.1787 20.9728L34.6626 9.69537C34.7378 9.62114 34.789 9.52709 34.81 9.42482C34.831 9.32255 34.8208 9.21653 34.7807 9.11984C34.7406 9.02315 34.6723 8.94 34.5843 8.88066C34.4963 8.82132 34.3924 8.78838 34.2854 8.78589L9.85152 8.30274C9.74183 8.30074 9.63405 8.33086 9.54211 8.38919C9.45018 8.44752 9.37831 8.53138 9.3358 8.62993C9.29329 8.72849 9.2821 8.8372 9.30367 8.94201C9.32524 9.04683 9.37858 9.14293 9.4568 9.21789L21.6951 20.9804ZM22.681 20.4935C22.6156 20.5574 22.527 20.5934 22.4344 20.5938C22.3419 20.5941 22.2529 20.5588 22.1871 20.4954L10.219 8.99431L33.916 9.46042L22.681 20.4935Z"
      fill="#24174F" />
    <path
      d="M34.121 27.2331L26.2071 17.2137L26.7632 16.7968L34.6771 26.8181L34.121 27.2331ZM10.1382 27.4036L18.4176 17.2175L17.8673 16.7931L9.58984 26.9792L10.1382 27.4036Z"
      fill="#24174F" />
  </g>
</svg>