<svg width="11" height="11" viewBox="0 0 11 11" fill="none" xmlns="http://www.w3.org/2000/svg">
  <path fill-rule="evenodd" clip-rule="evenodd"
    d="M1.73359 1.2895C1.57863 1.37545 1.43479 1.55445 1.43479 1.82119V9.17821C1.43479 9.44506 1.57875 9.62432 1.73403 9.71036C1.88082 9.79176 2.06291 9.80879 2.25786 9.7089C4.24697 8.6903 7.23228 7.11975 9.21813 6.071C9.68099 5.82656 9.68099 5.17438 9.21813 4.92986C7.232 3.88071 4.24582 2.30946 2.25662 1.29101C2.06178 1.19126 1.88002 1.20827 1.73359 1.2895ZM0.950642 0.265286C1.53881 -0.0609732 2.31145 -0.106913 2.99576 0.243449C4.99459 1.26685 7.98871 2.84229 9.97426 3.89114C11.342 4.61363 11.3419 6.3874 9.97407 7.10981C7.9889 8.15823 4.99574 9.73293 2.9971 10.7564C2.31255 11.107 1.5396 11.061 0.951226 10.7347C0.371323 10.4131 0 9.83992 0 9.17821V1.82119C0 1.15987 0.370979 0.586835 0.950642 0.265286Z"
    fill="currentColor" />
</svg>