<svg viewBox="0 0 17 17" fill="none" xmlns="http://www.w3.org/2000/svg">
  <g clip-path="url(#clip0_50_7999)">
    <path
      d="M2.31203 10.625L11.812 1.125C12.5933 0.34375 13.8745 0.34375 14.6557 1.125L15.8745 2.34375C15.9683 2.4375 16.062 2.5625 16.1245 2.65625C16.6557 3.4375 16.562 4.5 15.8745 5.1875L6.37453 14.6875C6.34328 14.7188 6.28078 14.75 6.24953 14.8125C5.93703 15.0625 5.59328 15.25 5.21828 15.375L1.43703 16.4688C1.18703 16.5625 0.905783 16.5 0.718283 16.2812C0.499533 16.0938 0.437033 15.8125 0.499533 15.5625L1.62453 11.7812C1.74953 11.3438 1.99953 10.9375 2.31203 10.625ZM3.06203 12.2188L2.34328 14.6562L4.78078 13.9375C4.96828 13.875 5.15578 13.7812 5.31203 13.625L12.4683 6.46875L10.4995 4.53125L3.37453 11.6875C3.34328 11.6875 3.34328 11.7188 3.31203 11.75C3.18703 11.875 3.12453 12.0312 3.06203 12.2188Z"
      fill="white" />
  </g>
  <defs>
    <clipPath id="clip0_50_7999">
      <rect width="17" height="17" fill="white" />
    </clipPath>
  </defs>
</svg>