<svg width="10" height="10" viewBox="0 0 10 10" fill="currentColor" xmlns="http://www.w3.org/2000/svg">
	<path d="M5 0.125C4.03582 0.125 3.09329 0.410914 2.2916 0.946586C1.48991 1.48226 0.865067 2.24363 0.496089 3.13442C0.127112 4.02521 0.030571 5.00541 0.218674 5.95107C0.406777 6.89672 0.871076 7.76536 1.55286 8.44715C2.23464 9.12893 3.10328 9.59323 4.04894 9.78133C4.99459 9.96943 5.97479 9.87289 6.86558 9.50391C7.75637 9.13494 8.51775 8.51009 9.05342 7.7084C9.58909 6.90671 9.875 5.96418 9.875 5C9.87364 3.70749 9.35958 2.46831 8.44564 1.55436C7.5317 0.640418 6.29251 0.126365 5 0.125ZM5 9.125C4.18415 9.125 3.38663 8.88307 2.70827 8.42981C2.02992 7.97655 1.50121 7.33231 1.189 6.57857C0.876788 5.82482 0.795099 4.99542 0.954263 4.19525C1.11343 3.39508 1.5063 2.66008 2.08319 2.08318C2.66008 1.50629 3.39508 1.11342 4.19525 0.954261C4.99543 0.795097 5.82483 0.876785 6.57857 1.189C7.33232 1.50121 7.97655 2.02992 8.42981 2.70827C8.88307 3.38663 9.125 4.18415 9.125 5C9.12376 6.09364 8.68877 7.14213 7.91545 7.91545C7.14213 8.68876 6.09364 9.12376 5 9.125ZM7.26125 4.68219L4.26125 2.80719C4.2045 2.77172 4.13929 2.75208 4.07239 2.75032C4.00549 2.74855 3.93934 2.76472 3.8808 2.79715C3.82225 2.82958 3.77346 2.87708 3.73947 2.93473C3.70548 2.99238 3.68754 3.05808 3.6875 3.125V6.875C3.68754 6.94192 3.70548 7.00762 3.73947 7.06527C3.77346 7.12292 3.82225 7.17042 3.8808 7.20285C3.93934 7.23528 4.00549 7.25145 4.07239 7.24968C4.13929 7.24792 4.2045 7.22828 4.26125 7.19281L7.26125 5.31781C7.3151 5.28408 7.3595 5.23723 7.39028 5.18163C7.42106 5.12604 7.4372 5.06354 7.4372 5C7.4372 4.93646 7.42106 4.87396 7.39028 4.81837C7.3595 4.76277 7.3151 4.71592 7.26125 4.68219ZM4.4375 6.19859V3.80141L6.35516 5L4.4375 6.19859Z" fill="currentColor" />
</svg>
