<?xml version="1.0" encoding="UTF-8"?>
<svg width="256px" height="256px" viewBox="0 0 256 256" version="1.1" xmlns="http://www.w3.org/2000/svg" xmlns:xlink="http://www.w3.org/1999/xlink">
    <!-- Generator: Sketch 46.1 (44463) - http://www.bohemiancoding.com/sketch -->
    <title>Artboard Copy 10</title>
    <desc>Created with Sketch.</desc>
    <defs></defs>
    <g id="pop-Up" stroke="none" stroke-width="1" fill="none" fill-rule="evenodd">
        <g id="Artboard-Copy-10" fill-rule="nonzero" fill="#C4DEF1">
            <g id="Contacts">
                <path d="M229.587302,2.03174603 L27.631746,2.03174603 C13.4095238,2.03174603 2.03174603,13.4095238 2.03174603,27.631746 L2.03174603,229.587302 C2.03174603,243.809524 13.4095238,255.187302 27.631746,255.187302 L229.587302,255.187302 C243.809524,255.187302 255.187302,243.809524 255.187302,229.587302 L255.187302,27.631746 C255.187302,13.4095238 243.809524,2.03174603 229.587302,2.03174603 Z M171.073016,193.828571 L45.9174603,193.828571 L45.9174603,165.384127 C45.9174603,158.069841 55.6698413,155.225397 60.952381,153.193651 C78.831746,146.692063 84.5206349,141.409524 84.5206349,129.625397 C84.5206349,122.71746 79.2380952,124.749206 76.8,112.152381 C75.9873016,106.869841 71.1111111,112.152381 69.8920635,99.9619048 C69.8920635,95.0857143 72.3301587,93.8666667 72.3301587,93.8666667 C72.3301587,93.8666667 71.1111111,86.9587302 70.2984127,81.2698413 C69.4857143,74.3619048 74.3619048,56.8888889 99.1492063,56.8888889 C123.936508,56.8888889 128.406349,74.3619048 128,81.2698413 C127.593651,86.552381 125.968254,93.8666667 125.968254,93.8666667 C125.968254,93.8666667 128.406349,95.0857143 128.406349,99.9619048 C127.593651,112.152381 122.71746,106.869841 121.498413,112.152381 C119.060317,124.749206 113.777778,122.71746 113.777778,129.625397 C113.777778,141.409524 119.466667,146.692063 137.346032,153.193651 C155.225397,159.695238 170.260317,165.790476 170.260317,172.698413 L170.260317,193.828571 L171.073016,193.828571 Z M182.044444,193.828571 L182.044444,170.666667 C182.044444,159.288889 177.980952,156.850794 149.130159,144.253968 C154.006349,141.815873 156.850794,136.533333 156.444444,131.250794 C156.444444,125.968254 152.380952,127.593651 150.755556,118.247619 C149.942857,114.184127 146.692063,118.247619 145.879365,109.307937 C145.879365,105.650794 147.911111,104.838095 147.911111,104.838095 C147.911111,104.838095 147.098413,99.5555556 146.692063,95.4920635 C146.285714,90.2095238 149.536508,77.2063492 168.228571,77.2063492 C186.920635,77.2063492 190.171429,90.615873 189.765079,95.4920635 C189.35873,99.5555556 188.546032,104.838095 188.546032,104.838095 C188.546032,104.838095 190.577778,105.650794 190.577778,109.307937 C190.171429,118.247619 186.514286,114.590476 185.701587,118.247619 C182.857143,127.593651 178.793651,125.968254 178.793651,131.250794 C178.793651,139.784127 182.857143,143.847619 196.266667,148.72381 C209.67619,153.6 216.584127,156.850794 219.834921,161.320635 C221.866667,164.571429 222.273016,193.828571 222.273016,193.828571 L182.044444,193.828571 L182.044444,193.828571 Z" id="Shape"></path>
            </g>
        </g>
    </g>
</svg>