<svg viewBox="0 0 16 17" fill="currentColor" xmlns="http://www.w3.org/2000/svg">
  <g clip-path="url(#clip0_18_2340)">
    <g clip-path="url(#clip1_18_2340)">
      <path
        d="M6.4 1.17883C2.85 1.17883 0 4.61445 0 8.82682C0 13.0691 2.85 16.4748 6.4 16.4748C9.92496 16.4748 12.8 13.0691 12.8 8.82682C12.8 4.61445 9.92496 1.17883 6.4 1.17883ZM6.4 15.0408C3.525 15.0408 1.2 12.2625 1.2 8.82682C1.2 5.42107 3.525 2.61283 6.4 2.61283C9.25 2.61283 11.6 5.42107 11.6 8.82682C11.6 12.2625 9.25 15.0408 6.4 15.0408ZM6.4 11.2168C5.95 11.2168 5.6 11.6351 5.6 12.1728C5.6 12.7106 5.925 13.1288 6.4 13.1288C6.825 13.1288 7.2 12.7106 7.2 12.1728C7.2 11.6351 6.825 11.2168 6.4 11.2168ZM7.225 5.00283H5.95C4.975 5.00283 4.2 5.92895 4.2 7.09407C4.2 7.48245 4.475 7.81107 4.8 7.81107C5.125 7.81107 5.4 7.48245 5.4 7.09407C5.4 6.73557 5.625 6.43682 5.925 6.43682H7.2C7.525 6.43682 7.8 6.73557 7.8 7.09407C7.8 7.33307 7.7 7.5422 7.525 7.6617L6.1 8.67744C5.9 8.82682 5.8 9.06582 5.8 9.30482V9.78282C5.8 10.1712 6.075 10.4998 6.4 10.4998C6.725 10.4998 7 10.1712 7 9.78282V9.72307L8.12496 8.88657C8.65 8.49819 8.97504 7.81107 8.97504 7.09407C9 5.92895 8.22496 5.00283 7.225 5.00283Z" />
    </g>
  </g>
  <defs>
    <clipPath id="clip0_18_2340">
      <rect width="16" height="16.252" fill="white" transform="translate(0 0.700806)" />
    </clipPath>
    <clipPath id="clip1_18_2340">
      <rect width="12.8" height="16.252" fill="white" transform="translate(0 0.700806)" />
    </clipPath>
  </defs>
</svg>