<svg fill="currentColor" viewBox="0 0 24 24" xmlns="http://www.w3.org/2000/svg">
  <path
    d="M8.30859 10.875C8.30859 10.2537 8.92853 9.75 9.69321 9.75C10.4579 9.75 11.0778 10.2537 11.0778 10.875V16.875C11.0778 17.4963 10.4579 18 9.69321 18C8.92853 18 8.30859 17.4963 8.30859 16.875V10.875Z" />
  <path
    d="M15.6911 10.875C15.6911 10.2537 15.0712 9.75 14.3065 9.75C13.5418 9.75 12.9219 10.2537 12.9219 10.875V16.875C12.9219 17.4963 13.5418 18 14.3065 18C15.0712 18 15.6911 17.4963 15.6911 16.875V10.875Z" />
  <path fill-rule="evenodd" clip-rule="evenodd"
    d="M7.38462 0C6.36502 0 5.53846 0.67158 5.53846 1.5V3.75H1.38462C0.61992 3.75 0 4.25368 0 4.875C0 5.49632 0.61992 6 1.38462 6H2.76923V21C2.76923 22.6569 4.42233 24 6.46154 24H17.5385C19.5777 24 21.2308 22.6569 21.2308 21V6H22.6154C23.3801 6 24 5.49632 24 4.875C24 4.25368 23.3801 3.75 22.6154 3.75H18.4615V1.5C18.4615 0.67158 17.635 0 16.6154 0H7.38462ZM5.53846 6H18.4615V20.25C18.4615 21.0784 17.635 21.75 16.6154 21.75H7.38462C6.36502 21.75 5.53846 21.0784 5.53846 20.25V6ZM15.6923 2.25H8.30769V3.75H15.6923V2.25Z" />
</svg>