<svg width="15" height="15" viewBox="0 0 15 15" fill="currentColor" xmlns="http://www.w3.org/2000/svg">
  <g clip-path="url(#clip0_2330_993)">
    <path
      d="M13.9121 13.1774L10.3848 9.65007C10.3219 9.58718 10.2398 9.55437 10.1523 9.55437H9.8707C10.8086 8.53992 11.3828 7.1864 11.3828 5.69617C11.3828 2.55437 8.83711 0.00866699 5.69531 0.00866699C2.55352 0.00866699 0.0078125 2.55437 0.0078125 5.69617C0.0078125 8.83796 2.55352 11.3837 5.69531 11.3837C7.18555 11.3837 8.53906 10.8094 9.55352 9.87429V10.1532C9.55352 10.2407 9.58906 10.3227 9.64922 10.3856L13.1766 13.913C13.3051 14.0415 13.5129 14.0415 13.6414 13.913L13.9121 13.6423C14.0406 13.5137 14.0406 13.3059 13.9121 13.1774ZM5.69531 10.5087C3.03477 10.5087 0.882812 8.35671 0.882812 5.69617C0.882812 3.03562 3.03477 0.883667 5.69531 0.883667C8.35586 0.883667 10.5078 3.03562 10.5078 5.69617C10.5078 8.35671 8.35586 10.5087 5.69531 10.5087Z" />
  </g>
  <defs>
    <clipPath id="clip0_2330_993">
      <rect width="14" height="14" fill="white" transform="translate(0.0078125 0.00866699)" />
    </clipPath>
  </defs>
</svg>