<svg viewBox="0 0 16 16" fill="#597191" xmlns="http://www.w3.org/2000/svg">
  <g clip-path="url(#clip0_18_2262)">
    <g clip-path="url(#clip1_18_2262)">
      <path
        d="M16 7.99999C16 8.41176 15.725 8.70588 15.4 8.70588H12.375L10.925 12.3236C10.825 12.5882 10.6 12.7352 10.325 12.7059C10.075 12.6765 9.87504 12.4706 9.8 12.1765L8.05 4.29411L6.175 14.9705C6.125 15.2941 5.875 15.5294 5.6 15.5294C5.325 15.5294 5.075 15.3235 5 15.0295L3.525 8.70588H0.575C0.25 8.70588 0 8.41176 0 7.99999C0 7.61764 0.25 7.29411 0.575 7.29411H4C4.25 7.29411 4.5 7.5294 4.575 7.82352L5.5 11.8235L7.4 1.05882C7.45 0.735287 7.7 0.499993 7.975 0.470581H8C8.25 0.470581 8.5 0.705875 8.57504 0.999993L10.55 9.94117L11.45 7.70588C11.55 7.47058 11.75 7.29411 12 7.29411H15.4C15.725 7.29411 16 7.61764 16 7.99999Z" />
    </g>
  </g>
  <defs>
    <clipPath id="clip0_18_2262">
      <rect width="16" height="16" fill="white" />
    </clipPath>
    <clipPath id="clip1_18_2262">
      <rect width="16" height="16" fill="white" />
    </clipPath>
  </defs>
</svg>