<svg width="13" height="13" viewBox="0 0 13 13" fill="none" stroke="currentColor" xmlns="http://www.w3.org/2000/svg">
  <g clip-path="url(#clip0_18_2331)">
    <path
      d="M5.3998 8.12923C6.14539 8.12923 6.7498 7.40696 6.7498 6.51599C6.7498 5.62502 6.14539 4.90274 5.3998 4.90274C4.65422 4.90274 4.0498 5.62502 4.0498 6.51599C4.0498 7.40696 4.65422 8.12923 5.3998 8.12923Z" />
    <path
      d="M8.7302 8.12922C8.67029 8.29142 8.65243 8.47134 8.67889 8.64578C8.70536 8.82022 8.77495 8.98119 8.8787 9.10793L8.9057 9.14019C8.98937 9.24008 9.05576 9.35869 9.10105 9.48925C9.14634 9.61982 9.16965 9.75977 9.16965 9.90111C9.16965 10.0424 9.14634 10.1824 9.10105 10.313C9.05576 10.4435 8.98937 10.5621 8.9057 10.662C8.82211 10.762 8.72285 10.8413 8.61359 10.8955C8.50433 10.9496 8.38722 10.9775 8.26895 10.9775C8.15067 10.9775 8.03356 10.9496 7.9243 10.8955C7.81504 10.8413 7.71578 10.762 7.6322 10.662L7.6052 10.6298C7.49914 10.5058 7.36444 10.4226 7.21846 10.391C7.07248 10.3594 6.92192 10.3807 6.7862 10.4523C6.6531 10.5205 6.53959 10.6337 6.45963 10.7779C6.37968 10.9222 6.33677 11.0913 6.3362 11.2643V11.3557C6.3362 11.641 6.24137 11.9145 6.07259 12.1162C5.90381 12.3179 5.67489 12.4312 5.4362 12.4312C5.1975 12.4312 4.96858 12.3179 4.7998 12.1162C4.63102 11.9145 4.5362 11.641 4.5362 11.3557V11.3073C4.53271 11.1293 4.4845 10.9567 4.39783 10.8119C4.31115 10.6671 4.19003 10.5568 4.0502 10.4953C3.91447 10.4237 3.76391 10.4024 3.61793 10.434C3.47195 10.4656 3.33725 10.5488 3.2312 10.6728L3.2042 10.705C3.12061 10.805 3.02135 10.8844 2.91209 10.9385C2.80283 10.9926 2.68572 11.0205 2.56745 11.0205C2.44917 11.0205 2.33206 10.9926 2.2228 10.9385C2.11354 10.8844 2.01428 10.805 1.9307 10.705C1.84702 10.6052 1.78063 10.4865 1.73534 10.356C1.69005 10.2254 1.66674 10.0855 1.66674 9.94413C1.66674 9.80279 1.69005 9.66284 1.73534 9.53227C1.78063 9.40171 1.84702 9.2831 1.9307 9.18321L1.9577 9.15095C2.06144 9.02421 2.13103 8.86324 2.1575 8.6888C2.18397 8.51436 2.1661 8.33444 2.1062 8.17224C2.04915 8.01319 1.95444 7.87755 1.8337 7.782C1.71297 7.68646 1.5715 7.63518 1.4267 7.63449H1.3502C1.1115 7.63449 0.882582 7.52118 0.713799 7.31949C0.545016 7.11779 0.450195 6.84424 0.450195 6.559C0.450195 6.27376 0.545016 6.0002 0.713799 5.79851C0.882582 5.59681 1.1115 5.4835 1.3502 5.4835H1.3907C1.53964 5.47934 1.6841 5.42172 1.80528 5.31815C1.92646 5.21457 2.01877 5.06983 2.0702 4.90273C2.1301 4.74054 2.14797 4.56062 2.1215 4.38617C2.09503 4.21173 2.02544 4.05076 1.9217 3.92403L1.8947 3.89176C1.81102 3.79188 1.74463 3.67326 1.69934 3.5427C1.65405 3.41214 1.63074 3.27218 1.63074 3.13085C1.63074 2.98951 1.65405 2.84956 1.69934 2.719C1.74463 2.58843 1.81102 2.46982 1.8947 2.36993C1.97828 2.26994 2.07754 2.19061 2.1868 2.13649C2.29606 2.08236 2.41317 2.0545 2.53145 2.0545C2.64972 2.0545 2.76683 2.08236 2.87609 2.13649C2.98535 2.19061 3.08461 2.26994 3.1682 2.36993L3.1952 2.4022C3.30125 2.52617 3.43595 2.60933 3.58193 2.64096C3.72791 2.67259 3.87847 2.65124 4.0142 2.57965H4.0502C4.18329 2.51149 4.2968 2.3983 4.37676 2.25403C4.45671 2.10976 4.49962 1.94069 4.5002 1.76765V1.67624C4.5002 1.391 4.59502 1.11744 4.7638 0.915745C4.93258 0.71405 5.1615 0.600739 5.4002 0.600739C5.63889 0.600739 5.86781 0.71405 6.03659 0.915745C6.20537 1.11744 6.3002 1.391 6.3002 1.67624V1.72463C6.30077 1.89767 6.34368 2.06674 6.42363 2.21101C6.50359 2.35528 6.6171 2.46847 6.7502 2.53663C6.88592 2.60822 7.03648 2.62957 7.18246 2.59794C7.32844 2.56631 7.46314 2.48315 7.5692 2.35918L7.5962 2.32691C7.67978 2.22692 7.77904 2.14759 7.8883 2.09347C7.99756 2.03934 8.11467 2.01148 8.23295 2.01148C8.35122 2.01148 8.46833 2.03934 8.57759 2.09347C8.68685 2.14759 8.78611 2.22692 8.8697 2.32691C8.95337 2.4268 9.01976 2.54541 9.06505 2.67598C9.11034 2.80654 9.13365 2.94649 9.13365 3.08783C9.13365 3.22916 9.11034 3.36912 9.06505 3.49968C9.01976 3.63024 8.95337 3.74886 8.8697 3.84874L8.8427 3.88101C8.73895 4.00774 8.66936 4.16871 8.64289 4.34315C8.61643 4.5176 8.63429 4.69752 8.6942 4.85971V4.90273C8.75124 5.06178 8.84596 5.19743 8.96669 5.29297C9.08742 5.38852 9.22889 5.43979 9.3737 5.44048H9.4502C9.68889 5.44048 9.91781 5.55379 10.0866 5.75549C10.2554 5.95718 10.3502 6.23074 10.3502 6.51598C10.3502 6.80122 10.2554 7.07477 10.0866 7.27647C9.91781 7.47816 9.68889 7.59147 9.4502 7.59147H9.4097C9.26489 7.59216 9.12342 7.64344 9.00269 7.73898C8.88196 7.83453 8.78724 7.97017 8.7302 8.12922Z" />
  </g>
  <defs>
    <clipPath id="clip0_18_2331">
      <rect width="11.906" height="12.906" fill="white" transform="translate(0 0.0629883)" />
    </clipPath>
  </defs>
</svg>