<svg width="10" height="15" viewBox="0 0 10 15" fill="currentColor" xmlns="http://www.w3.org/2000/svg">
  <g clip-path="url(#clip0_2330_998)">
    <path
      d="M8.1089 7.88367H0.908899C0.110149 7.88367 -0.294851 8.82703 0.273274 9.37664L3.87327 12.8766C4.22484 13.2184 4.79577 13.2184 5.14734 12.8766L8.74734 9.37664C9.30984 8.82703 8.90765 7.88367 8.1089 7.88367ZM4.5089 12.2587L0.908899 8.75867H8.1089L4.5089 12.2587ZM0.908899 6.13367H8.1089C8.90765 6.13367 9.31265 5.19031 8.74452 4.6407L5.14452 1.1407C4.79296 0.798904 4.22202 0.798904 3.87046 1.1407L0.270462 4.6407C-0.292038 5.19031 0.110149 6.13367 0.908899 6.13367ZM4.5089 1.75867L8.1089 5.25867H0.908899L4.5089 1.75867Z" />
  </g>
  <defs>
    <clipPath id="clip0_2330_998">
      <rect width="9" height="14" fill="white" transform="translate(0.0078125 0.00866699)" />
    </clipPath>
  </defs>
</svg>