<svg xmlns="http://www.w3.org/2000/svg" stroke="currentColor" fill="currentColor" xml:space="preserve" width="128mm" height="128mm" version="1.1" style="shape-rendering:geometricPrecision; text-rendering:geometricPrecision; image-rendering:optimizeQuality; fill-rule:evenodd; clip-rule:evenodd" viewBox="0 0 12800 12800" xmlns:xlink="http://www.w3.org/1999/xlink">
	<g id="Слой_x0020_1">
		<metadata id="CorelCorpID_0Corel-Layer" />
		<g id="_2330664223712">
			<path class="fil1" d="M2360 2248l3357 0c119,-14 243,25 334,116l4594 4610c157,158 156,415 -1,572l-3374 3362c-157,157 -415,156 -572,-1l-4594 -4610c-82,-83 -121,-192 -117,-301l-1 -1 0 -3374c0,-205 168,-373 374,-373zm3231 685l-2569 0c-198,0 -360,162 -360,360l0 2482c14,79 51,156 112,217l1962 1969 0 -1 2042 2049c119,120 315,120 434,1l2559 -2549c119,-119 120,-315 1,-434l-2007 -2014 1 0 -658 -659 -820 -824c-7,-7 -14,-13 -22,-19l-464 -465c-60,-60 -128,-104 -211,-113zm-806 3877l-150 -37 78 6c29,2 53,13 72,31z" />
			<path class="fil1" d="M4210 3616c-492,0 -891,399 -891,891 0,492 399,891 891,891 492,0 891,-399 891,-891 0,-492 -399,-891 -891,-891zm0 565c-180,0 -326,146 -326,326 0,180 146,326 326,326 180,0 326,-146 326,-326 0,-180 -146,-326 -326,-326z" />
		</g>
	</g>
</svg>
