<svg xmlns="http://www.w3.org/2000/svg" stroke="currentColor" fill="currentColor" xml:space="preserve" width="128mm" height="128mm" version="1.1" style="shape-rendering:geometricPrecision; text-rendering:geometricPrecision; image-rendering:optimizeQuality; fill-rule:evenodd; clip-rule:evenodd" viewBox="0 0 12800 12800" xmlns:xlink="http://www.w3.org/1999/xlink">
	<g id="Слой_x0020_1">
		<metadata id="CorelCorpID_0Corel-Layer" />
		<g id="_2412682251648">
			<path class="fil1" d="M11259 7350l-2878 2881c-168,167 -442,167 -610,0l-278 -279 2599 -2602c168,-168 168,-442 0,-609l-3751 -3748 -236 -236c-84,-82 -418,-218 -811,-265 -296,-35 -342,-55 44,-52 855,6 1729,58 1933,317l236 236 3751 3748c168,167 168,441 1,609z" />
			<path class="fil1" d="M9262 7420l-2878 2880c-167,168 -442,168 -609,1l-3733 -3729 -244 -244c-344,-416 -362,-1016 -351,-1777 7,-467 4,-1001 9,-1568 1,-184 211,-426 394,-440 348,-25 915,-37 1491,-34 855,6 1730,59 1933,318l236 235 3752 3748c167,168 167,442 0,610zm-6159 -3912c-376,0 -681,291 -681,649 0,359 305,649 681,649 376,0 681,-290 681,-649 0,-358 -305,-649 -681,-649z" />
		</g>
	</g>
</svg>
