<svg viewBox="0 0 12 14" fill="#597191" xmlns="http://www.w3.org/2000/svg">
  <g clip-path="url(#clip0_18_2307)">
    <path
      d="M6.375 8.02479H4.875C3.82031 8.02479 3 8.89864 3 9.96667C3 10.1851 3.16406 10.355 3.375 10.355H7.875C8.0625 10.355 8.25 10.1851 8.25 9.96667C8.25 8.89864 7.40625 8.02479 6.375 8.02479ZM5.625 7.24805C6.44531 7.24805 7.125 6.56839 7.125 5.69455C7.125 4.84498 6.44531 4.14105 5.625 4.14105C4.78125 4.14105 4.125 4.84498 4.125 5.69455C4.125 6.56839 4.78125 7.24805 5.625 7.24805ZM11.625 8.80154H11.25V11.1318H11.625C11.8125 11.1318 12 10.9618 12 10.7434V9.18992C12 8.99573 11.8125 8.80154 11.625 8.80154ZM11.625 2.58755H11.25V4.9178H11.625C11.8125 4.9178 12 4.74789 12 4.52943V2.97593C12 2.78174 11.8125 2.58755 11.625 2.58755ZM11.625 5.69455H11.25V8.02479H11.625C11.8125 8.02479 12 7.85488 12 7.63642V6.08292C12 5.88874 11.8125 5.69455 11.625 5.69455ZM9 1.03406H2.25C1.40625 1.03406 0.75 1.73799 0.75 2.58755V11.9085C0.75 12.7824 1.40625 13.462 2.25 13.462H9C9.82035 13.462 10.5 12.7824 10.5 11.9085V2.58755C10.5 1.73799 9.82035 1.03406 9 1.03406ZM9.375 11.9085C9.375 12.127 9.1875 12.2969 9 12.2969H2.25C2.03906 12.2969 1.875 12.127 1.875 11.9085V2.58755C1.875 2.39337 2.03906 2.19918 2.25 2.19918H9C9.1875 2.19918 9.375 2.39337 9.375 2.58755V11.9085Z" />
  </g>
  <defs>
    <clipPath id="clip0_18_2307">
      <rect width="12" height="13.2047" fill="white" transform="translate(0 0.645691)" />
    </clipPath>
  </defs>
</svg>