<svg viewBox="0 0 18 15" fill="currentColor" xmlns="http://www.w3.org/2000/svg">
  <g clip-path="url(#clip0_2330_989)">
    <path
      d="M14.4578 6.13367C15.6319 6.13367 16.5828 5.15476 16.5828 3.94617C16.5828 2.73757 15.6319 1.75867 14.4578 1.75867C13.2837 1.75867 12.3328 2.73757 12.3328 3.94617C12.3328 5.15476 13.2837 6.13367 14.4578 6.13367ZM14.4578 3.07117C14.9253 3.07117 15.3078 3.46492 15.3078 3.94617C15.3078 4.42742 14.9253 4.82117 14.4578 4.82117C13.9903 4.82117 13.6078 4.42742 13.6078 3.94617C13.6078 3.46492 13.9903 3.07117 14.4578 3.07117ZM2.55781 6.13367C3.73187 6.13367 4.68281 5.15476 4.68281 3.94617C4.68281 2.73757 3.73187 1.75867 2.55781 1.75867C1.38375 1.75867 0.432812 2.73757 0.432812 3.94617C0.432812 5.15476 1.38375 6.13367 2.55781 6.13367ZM2.55781 3.07117C3.02531 3.07117 3.40781 3.46492 3.40781 3.94617C3.40781 4.42742 3.02531 4.82117 2.55781 4.82117C2.09031 4.82117 1.70781 4.42742 1.70781 3.94617C1.70781 3.46492 2.09031 3.07117 2.55781 3.07117ZM13.0872 8.83796C12.3567 7.72234 10.9436 7.30671 9.6925 7.69773C9.31531 7.81531 8.91953 7.88093 8.50516 7.88093C8.09078 7.88093 7.695 7.81531 7.31781 7.69773C6.06672 7.30671 4.65359 7.7196 3.92312 8.83796C3.59375 9.34109 3.4025 9.94539 3.4025 10.5962V11.8212C3.4025 12.5458 3.97359 13.1337 4.6775 13.1337H12.3275C13.0314 13.1337 13.6025 12.5458 13.6025 11.8212V10.5962C13.6078 9.94539 13.4166 9.34109 13.0872 8.83796ZM12.3328 11.8212H4.68281V10.5962C4.68281 9.60085 5.45844 8.78601 6.42 8.75867C7.09734 9.04851 7.79859 9.19617 8.50781 9.19617C9.21703 9.19617 9.91828 9.04851 10.5956 8.75867C11.5572 8.78601 12.3328 9.59812 12.3328 10.5962V11.8212ZM14.7766 7.00867H14.1391C13.6795 7.00867 13.2519 7.15359 12.8959 7.39968C13.2519 7.67585 13.5653 8.00671 13.8097 8.38953C13.9133 8.35124 14.0222 8.32117 14.1364 8.32117H14.7739C15.2998 8.32117 15.7302 8.76414 15.7302 9.30554C15.7302 9.66648 16.017 9.96179 16.3677 9.96179C16.7183 9.96179 17.0052 9.66648 17.0052 9.30554C17.0078 8.03953 16.0064 7.00867 14.7766 7.00867ZM8.50781 7.00867C10.152 7.00867 11.4828 5.63875 11.4828 3.94617C11.4828 2.25359 10.152 0.883667 8.50781 0.883667C6.86359 0.883667 5.53281 2.25359 5.53281 3.94617C5.53281 5.63875 6.86359 7.00867 8.50781 7.00867ZM8.50781 2.19617C9.44547 2.19617 10.2078 2.98093 10.2078 3.94617C10.2078 4.9114 9.44547 5.69617 8.50781 5.69617C7.57016 5.69617 6.80781 4.9114 6.80781 3.94617C6.80781 2.98093 7.57016 2.19617 8.50781 2.19617ZM4.11969 7.39968C3.76375 7.15359 3.33609 7.00867 2.87656 7.00867H2.23906C1.00922 7.00867 0.0078125 8.03953 0.0078125 9.30554C0.0078125 9.66648 0.294687 9.96179 0.645312 9.96179C0.995937 9.96179 1.28281 9.66648 1.28281 9.30554C1.28281 8.76414 1.71312 8.32117 2.23906 8.32117H2.87656C2.99344 8.32117 3.10234 8.35124 3.20328 8.38953C3.45031 8.00671 3.76375 7.67585 4.11969 7.39968Z" />
  </g>
  <defs>
    <clipPath id="clip0_2330_989">
      <rect width="17" height="14" fill="white" transform="translate(0.0078125 0.00866699)" />
    </clipPath>
  </defs>
</svg>