<svg width="16" height="16" viewBox="0 0 16 16" fill="currentColor" xmlns="http://www.w3.org/2000/svg">
  <g clip-path="url(#clip0_50_8034)">
    <g clip-path="url(#clip1_50_8034)">
      <path
        d="M5.6 7.99999C7.35 7.99999 8.8 6.32352 8.8 4.23529C8.8 2.17646 7.35 0.470581 5.6 0.470581C3.825 0.470581 2.4 2.17646 2.4 4.23529C2.4 6.32352 3.825 7.99999 5.6 7.99999ZM5.6 1.88235C6.7 1.88235 7.6 2.94117 7.6 4.23529C7.6 5.55882 6.7 6.58823 5.6 6.58823C4.475 6.58823 3.6 5.55882 3.6 4.23529C3.6 2.94117 4.475 1.88235 5.6 1.88235ZM6.85 9.41176H4.325C1.925 9.41176 0 11.7059 0 14.5294C0 15.0882 0.375 15.5294 0.85 15.5294H10.325C10.8 15.5294 11.2 15.0882 11.2 14.5294C11.2 11.7059 9.25 9.41176 6.85 9.41176ZM1.2 14.1176C1.375 12.2941 2.7 10.8235 4.325 10.8235H6.85C8.47504 10.8235 9.77504 12.2941 9.97504 14.1176H1.2ZM11.975 9.88235H10.125C11.275 11 12 12.6765 12 14.5294C12 14.9118 11.9 15.2353 11.75 15.5294H15.2C15.625 15.5294 16 15.1176 16 14.5882C16 12 14.2 9.88235 11.975 9.88235ZM10.8 7.99999C12.325 7.99999 13.6 6.5294 13.6 4.70588C13.6 2.91176 12.325 1.41176 10.8 1.41176C10.15 1.41176 9.57504 1.67646 9.12496 2.08823C9.4 2.73529 9.6 3.47058 9.6 4.23529C9.6 5.29411 9.3 6.2647 8.8 7.0294C9.3 7.64705 10 7.99999 10.8 7.99999Z" />
    </g>
  </g>
  <defs>
    <clipPath id="clip0_50_8034">
      <rect width="16" height="16" fill="white" />
    </clipPath>
    <clipPath id="clip1_50_8034">
      <rect width="16" height="16" fill="white" />
    </clipPath>
  </defs>
</svg>