<svg viewBox="0 0 18 18" fill="currentColor" xmlns="http://www.w3.org/2000/svg">
  <g clip-path="url(#clip0_35_5511)">
    <path
      d="M12.9224 9.03195C12.5765 8.86752 12.2235 8.7259 11.8644 8.60724C13.0275 7.73424 13.7813 6.3441 13.7813 4.78125C13.7813 2.14488 11.6364 0 9 0C6.36359 0 4.21874 2.14488 4.21874 4.78125C4.21874 6.34585 4.97417 7.73734 6.13944 8.61016C5.07182 8.96166 4.07003 9.50859 3.19323 10.2298C1.58546 11.5522 0.4676 13.3969 0.0456192 15.4238C-0.0866385 16.059 0.071811 16.7113 0.480254 17.2136C0.886699 17.7133 1.48938 18 2.13373 18H10.7929C11.1813 18 11.4961 17.6852 11.4961 17.2969C11.4961 16.9085 11.1813 16.5938 10.7929 16.5938H2.13373C1.83356 16.5938 1.65247 16.4262 1.57126 16.3264C1.43102 16.1539 1.37674 15.9295 1.42234 15.7104C2.152 12.2055 5.2435 9.64526 8.81357 9.5589C8.87545 9.56129 8.93754 9.5625 9 9.5625C9.063 9.5625 9.12578 9.56128 9.18819 9.55885C10.2823 9.5845 11.3345 9.83421 12.3187 10.302C12.6694 10.4687 13.0888 10.3196 13.2556 9.96885C13.4222 9.61812 13.2731 9.19867 12.9224 9.03195ZM9.17146 8.15193C9.11444 8.1509 9.05725 8.1504 9 8.1504C8.94326 8.1504 8.88651 8.15094 8.82981 8.15197C7.04759 8.0631 5.625 6.58516 5.625 4.78125C5.625 2.92025 7.13899 1.40625 9 1.40625C10.861 1.40625 12.375 2.92025 12.375 4.78125C12.375 6.58471 10.9531 8.06234 9.17146 8.15193Z" />
    <path
      d="M17.2969 13.957H15.3633V12.0235C15.3633 11.6351 15.0485 11.3203 14.6602 11.3203C14.2719 11.3203 13.957 11.6351 13.957 12.0235V13.957H12.0235C11.6351 13.957 11.3203 14.2718 11.3203 14.6602C11.3203 15.0485 11.6351 15.3633 12.0235 15.3633H13.957V17.2969C13.957 17.6852 14.2719 18 14.6602 18C15.0485 18 15.3633 17.6852 15.3633 17.2969V15.3633H17.2969C17.6852 15.3633 18 15.0485 18 14.6602C18 14.2718 17.6852 13.957 17.2969 13.957Z" />
  </g>
  <defs>
    <clipPath id="clip0_35_5511">
      <rect width="18" height="18" />
    </clipPath>
  </defs>
</svg>