<svg viewBox="0 0 35 35" fill="currentColor" xmlns="http://www.w3.org/2000/svg">
  <g clip-path="url(#clip0_35_5525)">
    <path
      d="M18.1042 17.7435C19.8181 17.7435 21.1712 16.1198 21.1712 14.0451C21.1712 11.9704 20.7201 10.3466 18.1042 10.3466C15.4882 10.3466 15.0371 11.9704 15.0371 14.0451C15.0371 16.1198 16.4804 17.7435 18.1042 17.7435Z" />
    <path
      d="M23.8781 23.246C23.7879 19.7279 23.3368 18.6455 19.8188 18.014C19.8188 18.014 19.2776 18.6455 18.195 18.6455C17.1126 18.6455 16.4812 18.014 16.4812 18.014C12.9631 18.6455 12.5121 19.6377 12.4219 23.0655C12.4219 23.3362 12.4219 23.3362 12.4219 23.3362C12.4219 23.4264 12.4219 23.5166 12.4219 23.6969C12.4219 23.6969 13.2337 25.4109 18.195 25.4109C23.0662 25.4109 23.9683 23.6969 23.9683 23.6969C23.9683 23.6068 23.9683 23.5166 23.9683 23.4264C23.8781 23.5166 23.8781 23.4264 23.8781 23.246Z" />
    <path
      d="M22.3442 17.112C23.6973 17.112 24.7797 15.7589 24.7797 14.1352C24.7797 12.5115 24.4189 11.1584 22.3442 11.1584C21.9833 11.1584 21.7127 11.1584 21.4421 11.2486C21.8931 12.1507 21.9833 13.2332 21.9833 14.1352C21.9833 15.1274 21.7127 16.0296 21.2617 16.8414C21.5324 16.9316 21.9833 17.112 22.3442 17.112Z" />
    <path
      d="M27.0348 21.5321C26.9446 18.6455 26.5838 17.8336 23.6972 17.2924C23.6972 17.2924 23.2462 17.8336 22.3441 17.8336H22.2539C22.8854 18.1042 23.4266 18.465 23.7874 19.0063C24.509 19.9986 24.5993 21.2614 24.6895 23.1557C26.674 22.795 27.0348 21.9831 27.0348 21.9831C27.0348 21.8928 27.0348 21.8026 27.0348 21.8026C27.0348 21.7124 27.0348 21.7124 27.0348 21.5321Z" />
    <path
      d="M13.8652 17.112C14.3162 17.112 14.6771 17.0218 14.9477 16.7513C14.4966 15.9394 14.226 15.0373 14.226 14.0451C14.226 13.143 14.3162 12.0605 14.7673 11.1584C14.4966 11.0682 14.226 11.0682 13.8652 11.0682C11.7904 11.0682 11.4297 12.4213 11.4297 14.0451C11.4297 15.7589 12.5121 17.112 13.8652 17.112Z" />
    <path
      d="M14.0447 17.8336H13.9545C13.0523 17.8336 12.6014 17.2924 12.6014 17.2924C9.71473 17.8336 9.35388 18.6455 9.26367 21.5321C9.26367 21.7124 9.26367 21.7124 9.26367 21.7124C9.26367 21.8026 9.26367 21.8026 9.26367 21.8928C9.26367 21.8928 9.62452 22.7048 11.6091 23.0655C11.6091 21.1712 11.7894 19.9083 12.5111 18.9161C12.872 18.465 13.4132 18.1042 14.0447 17.8336Z" />
    <path
      d="M1.50631 19.0067C1.59652 18.285 2.40837 18.0143 2.94961 18.3752L6.73827 21.2618C7.27951 21.7129 7.1893 22.5247 6.55785 22.7953L2.13776 24.5994C1.50631 24.87 0.784661 24.3288 0.874867 23.6071L1.50631 19.0067Z" />
    <path
      d="M34.2511 17.1119C33.9804 17.7433 33.1686 17.9238 32.7175 17.3826L29.5604 13.7743C29.1093 13.2331 29.3799 12.4212 30.1016 12.331L34.7923 11.4289C35.514 11.3387 36.0552 11.9702 35.7846 12.6016L34.2511 17.1119Z" />
    <path
      d="M18.2851 34.2513C11.249 34.2513 4.93455 29.8312 2.58919 23.2461C2.31858 22.5245 2.6794 21.7126 3.40105 21.4421C4.12269 21.1714 4.84434 21.5322 5.11496 22.2539C7.0995 27.8466 12.3315 31.5451 18.2851 31.5451C24.7799 31.5451 30.3727 27.125 31.9062 20.8106C32.0866 20.089 32.8083 19.6379 33.5299 19.8183C34.2515 19.9987 34.7026 20.7204 34.5222 21.4421C32.6279 29.0193 25.9526 34.2513 18.2851 34.2513ZM3.31084 15.308C3.22063 15.308 3.13043 15.308 2.95002 15.308C2.22836 15.1276 1.77734 14.4059 1.95775 13.6843C3.85207 6.10696 10.5273 0.875 18.2851 0.875C25.4113 0.875 31.816 5.38531 34.0711 12.1508C34.3417 12.8724 33.8908 13.5941 33.2593 13.8647C32.5377 14.1353 31.816 13.7745 31.5454 13.0528C29.5608 7.36984 24.2386 3.58118 18.2851 3.58118C11.7902 3.58118 6.19744 8.00129 4.66393 14.3157C4.48352 14.857 3.94229 15.308 3.31084 15.308Z" />
  </g>
  <defs>
    <clipPath id="clip0_35_5525">
      <rect width="35" height="35" />
    </clipPath>
  </defs>
</svg>