<svg width="35" height="35" viewBox="0 0 35 35" fill="currentColor" xmlns="http://www.w3.org/2000/svg">
	<path d="M17.5 0C7.83501 0 0 7.83501 0 17.5C0 27.165 7.83501 35 17.5 35C27.165 35 35 27.165 35 17.5C35 7.83501 27.165 0 17.5 0ZM28.593 9.98047H25.4029C25.0361 8.44149 24.5604 7.02645 23.9956 5.77541C25.0747 6.37533 26.077 7.12872 26.9741 8.02587C27.5805 8.63222 28.1208 9.28689 28.593 9.98047ZM30.8984 17.5C30.8984 18.6695 30.7487 19.8158 30.46 20.918H26.0827C26.1921 19.8125 26.25 18.6698 26.25 17.5C26.25 16.3302 26.1921 15.1875 26.0827 14.082H30.46C30.7487 15.1842 30.8984 16.3305 30.8984 17.5ZM17.5 30.8984C17.1445 30.8984 16.0612 30.1997 14.9814 28.0401C14.5341 27.1455 14.1503 26.1265 13.8362 25.0195H21.1637C20.8497 26.1264 20.4659 27.1455 20.0186 28.0401C18.9388 30.1997 17.8555 30.8984 17.5 30.8984ZM13.0439 20.918C12.9176 19.8073 12.8516 18.6601 12.8516 17.5C12.8516 16.3399 12.9176 15.1927 13.0439 14.082H21.9561C22.0824 15.1927 22.1484 16.3399 22.1484 17.5C22.1484 18.6601 22.0824 19.8073 21.9561 20.918H13.0439ZM4.10156 17.5C4.10156 16.3305 4.25134 15.1842 4.54002 14.082H8.91734C8.8079 15.1875 8.75 16.3302 8.75 17.5C8.75 18.6698 8.8079 19.8125 8.91734 20.918H4.54002C4.25134 19.8158 4.10156 18.6695 4.10156 17.5ZM17.5 4.10156C17.8555 4.10156 18.9388 4.80026 20.0186 6.95987C20.4659 7.85449 20.8497 8.87353 21.1638 9.98047H13.8362C14.1503 8.87359 14.534 7.85449 14.9814 6.95987C16.0612 4.80026 17.1445 4.10156 17.5 4.10156ZM11.0044 5.77541C10.4395 7.02645 9.96386 8.44143 9.59711 9.98047H6.40698C6.87928 9.28689 7.41952 8.63222 8.02587 8.02587C8.92302 7.12872 9.9253 6.37533 11.0044 5.77541ZM6.40698 25.0195H9.59711C9.96386 26.5585 10.4396 27.9735 11.0044 29.2246C9.9253 28.6247 8.92295 27.8713 8.02587 26.9741C7.41952 26.3678 6.87921 25.7131 6.40698 25.0195ZM23.9956 29.2246C24.5605 27.9735 25.0361 26.5586 25.4029 25.0195H28.593C28.1207 25.7131 27.5805 26.3678 26.9741 26.9741C26.077 27.8713 25.0747 28.6247 23.9956 29.2246Z" fill="currentColor" />
</svg>
